<svg xmlns="http://www.w3.org/2000/svg" xmlns:xlink="http://www.w3.org/1999/xlink" width="217" zoomAndPan="magnify" viewBox="0 0 162.75 34.499999" height="46" preserveAspectRatio="xMidYMid meet" version="1.0"><defs><g/><clipPath id="f53a45c05c"><path d="M 86.9375 0 L 96.625 0 L 96.625 9.6875 L 86.9375 9.6875 Z M 86.9375 0 " clip-rule="nonzero"/></clipPath><clipPath id="41ab32d0aa"><path d="M 91.78125 0 C 89.105469 0 86.9375 2.167969 86.9375 4.84375 C 86.9375 7.519531 89.105469 9.6875 91.78125 9.6875 C 94.457031 9.6875 96.625 7.519531 96.625 4.84375 C 96.625 2.167969 94.457031 0 91.78125 0 Z M 91.78125 0 " clip-rule="nonzero"/></clipPath><clipPath id="0b2f53de0c"><path d="M 88.71875 1.3125 L 94.632812 1.3125 L 94.632812 7.226562 L 88.71875 7.226562 Z M 88.71875 1.3125 " clip-rule="nonzero"/></clipPath><clipPath id="c30615806e"><path d="M 82 25 L 137 25 L 137 34.007812 L 82 34.007812 Z M 82 25 " clip-rule="nonzero"/></clipPath></defs><g fill="#728fe8" fill-opacity="1"><g transform="translate(29.114254, 25.268689)"><g><path d="M 20.359375 0 L 19.28125 -13.421875 L 19.15625 -13.421875 L 14.515625 -0.140625 L 11.4375 -0.140625 L 6.796875 -13.421875 L 6.671875 -13.421875 L 5.59375 0 L 0.4375 0 L 2.46875 -22.640625 L 7.953125 -22.640625 L 12.984375 -9.578125 L 18 -22.640625 L 23.484375 -22.640625 L 25.515625 0 Z M 20.359375 0 "/></g></g></g><g fill="#728fe8" fill-opacity="1"><g transform="translate(54.132154, 25.268689)"><g><path d="M 15.890625 -6.359375 L 5.671875 -6.359375 C 5.671875 -5.378906 5.988281 -4.648438 6.625 -4.171875 C 7.269531 -3.691406 7.96875 -3.453125 8.71875 -3.453125 C 9.507812 -3.453125 10.132812 -3.554688 10.59375 -3.765625 C 11.050781 -3.984375 11.570312 -4.398438 12.15625 -5.015625 L 15.671875 -3.265625 C 14.203125 -0.816406 11.769531 0.40625 8.375 0.40625 C 6.25 0.40625 4.425781 -0.316406 2.90625 -1.765625 C 1.382812 -3.222656 0.625 -4.972656 0.625 -7.015625 C 0.625 -9.066406 1.382812 -10.820312 2.90625 -12.28125 C 4.425781 -13.75 6.25 -14.484375 8.375 -14.484375 C 10.601562 -14.484375 12.414062 -13.835938 13.8125 -12.546875 C 15.207031 -11.265625 15.90625 -9.425781 15.90625 -7.03125 C 15.90625 -6.695312 15.898438 -6.472656 15.890625 -6.359375 Z M 5.8125 -9.046875 L 11.171875 -9.046875 C 11.054688 -9.785156 10.765625 -10.347656 10.296875 -10.734375 C 9.835938 -11.128906 9.238281 -11.328125 8.5 -11.328125 C 7.695312 -11.328125 7.054688 -11.113281 6.578125 -10.6875 C 6.109375 -10.269531 5.851562 -9.722656 5.8125 -9.046875 Z M 5.8125 -9.046875 "/></g></g></g><g fill="#728fe8" fill-opacity="1"><g transform="translate(69.740842, 25.268689)"><g><path d="M 2.59375 -1.734375 C 1.28125 -3.171875 0.625 -4.929688 0.625 -7.015625 C 0.625 -9.109375 1.28125 -10.875 2.59375 -12.3125 C 3.914062 -13.757812 5.59375 -14.484375 7.625 -14.484375 C 9.488281 -14.484375 11.023438 -13.898438 12.234375 -12.734375 L 12.234375 -23.59375 L 17.09375 -23.59375 L 17.09375 0 L 12.296875 0 L 12.296875 -1.59375 L 12.234375 -1.59375 C 11.023438 -0.257812 9.488281 0.40625 7.625 0.40625 C 5.59375 0.40625 3.914062 -0.304688 2.59375 -1.734375 Z M 6.734375 -9.40625 C 6.109375 -8.789062 5.796875 -7.992188 5.796875 -7.015625 C 5.796875 -6.046875 6.09375 -5.253906 6.6875 -4.640625 C 7.289062 -4.035156 8.085938 -3.734375 9.078125 -3.734375 C 10.035156 -3.734375 10.816406 -4.039062 11.421875 -4.65625 C 12.035156 -5.28125 12.34375 -6.070312 12.34375 -7.03125 C 12.34375 -8 12.023438 -8.789062 11.390625 -9.40625 C 10.765625 -10.03125 9.992188 -10.34375 9.078125 -10.34375 C 8.148438 -10.34375 7.367188 -10.03125 6.734375 -9.40625 Z M 6.734375 -9.40625 "/></g></g></g><g fill="#728fe8" fill-opacity="1"><g transform="translate(87.544098, 25.268689)"><g><path d="M 2.109375 -21.921875 C 2.679688 -22.484375 3.359375 -22.765625 4.140625 -22.765625 C 4.929688 -22.765625 5.609375 -22.484375 6.171875 -21.921875 C 6.742188 -21.359375 7.03125 -20.679688 7.03125 -19.890625 C 7.03125 -19.109375 6.742188 -18.429688 6.171875 -17.859375 C 5.609375 -17.296875 4.929688 -17.015625 4.140625 -17.015625 C 3.359375 -17.015625 2.679688 -17.296875 2.109375 -17.859375 C 1.546875 -18.429688 1.265625 -19.109375 1.265625 -19.890625 C 1.265625 -20.679688 1.546875 -21.359375 2.109375 -21.921875 Z M 1.640625 -14.078125 L 1.640625 0 L 6.5 0 L 6.5 -14.078125 Z M 1.640625 -14.078125 "/></g></g></g><g fill="#728fe8" fill-opacity="1"><g transform="translate(94.89573, 25.268689)"><g><path d="M 9.140625 -10.515625 C 8.222656 -10.515625 7.4375 -10.175781 6.78125 -9.5 C 6.125 -8.820312 5.796875 -8.003906 5.796875 -7.046875 C 5.796875 -6.078125 6.125 -5.253906 6.78125 -4.578125 C 7.4375 -3.898438 8.222656 -3.5625 9.140625 -3.5625 C 9.578125 -3.5625 9.988281 -3.613281 10.375 -3.71875 C 10.769531 -3.832031 11.0625 -3.945312 11.25 -4.0625 L 11.5 -4.21875 L 13.140625 -0.84375 C 13.015625 -0.757812 12.835938 -0.644531 12.609375 -0.5 C 12.378906 -0.363281 11.859375 -0.179688 11.046875 0.046875 C 10.234375 0.285156 9.359375 0.40625 8.421875 0.40625 C 6.359375 0.40625 4.539062 -0.316406 2.96875 -1.765625 C 1.40625 -3.222656 0.625 -4.96875 0.625 -7 C 0.625 -9.039062 1.40625 -10.796875 2.96875 -12.265625 C 4.539062 -13.742188 6.359375 -14.484375 8.421875 -14.484375 C 9.359375 -14.484375 10.21875 -14.375 11 -14.15625 C 11.789062 -13.9375 12.347656 -13.71875 12.671875 -13.5 L 13.140625 -13.171875 L 11.5 -9.84375 C 10.894531 -10.289062 10.109375 -10.515625 9.140625 -10.515625 Z M 9.140625 -10.515625 "/></g></g></g><g fill="#728fe8" fill-opacity="1"><g transform="translate(107.432024, 25.268689)"><g><path d="M 2.59375 -1.734375 C 1.28125 -3.171875 0.625 -4.929688 0.625 -7.015625 C 0.625 -9.109375 1.28125 -10.875 2.59375 -12.3125 C 3.914062 -13.757812 5.59375 -14.484375 7.625 -14.484375 C 9.488281 -14.484375 11.023438 -13.898438 12.234375 -12.734375 L 12.234375 -14.078125 L 17.09375 -14.078125 L 17.09375 0 L 12.296875 0 L 12.296875 -1.59375 L 12.234375 -1.59375 C 11.023438 -0.257812 9.488281 0.40625 7.625 0.40625 C 5.59375 0.40625 3.914062 -0.304688 2.59375 -1.734375 Z M 6.734375 -9.40625 C 6.109375 -8.789062 5.796875 -7.992188 5.796875 -7.015625 C 5.796875 -6.046875 6.09375 -5.253906 6.6875 -4.640625 C 7.289062 -4.035156 8.085938 -3.734375 9.078125 -3.734375 C 10.035156 -3.734375 10.816406 -4.039062 11.421875 -4.65625 C 12.035156 -5.28125 12.34375 -6.070312 12.34375 -7.03125 C 12.34375 -8 12.023438 -8.789062 11.390625 -9.40625 C 10.765625 -10.03125 9.992188 -10.34375 9.078125 -10.34375 C 8.148438 -10.34375 7.367188 -10.03125 6.734375 -9.40625 Z M 6.734375 -9.40625 "/></g></g></g><g fill="#728fe8" fill-opacity="1"><g transform="translate(125.235281, 25.268689)"><g><path d="M 1.640625 0 L 1.640625 -23.59375 L 6.5 -23.59375 L 6.5 0 Z M 1.640625 0 "/></g></g></g><g clip-path="url(#f53a45c05c)"><g clip-path="url(#41ab32d0aa)"><path fill="#ffffff" d="M 86.9375 0 L 96.625 0 L 96.625 9.6875 L 86.9375 9.6875 Z M 86.9375 0 " fill-opacity="1" fill-rule="nonzero"/></g></g><g clip-path="url(#0b2f53de0c)"><path fill="#728fe8" d="M 94.839844 4.375 C 94.839844 6.070312 93.476562 7.433594 91.78125 7.433594 C 90.082031 7.433594 88.71875 6.070312 88.71875 4.375 C 88.71875 2.675781 90.082031 1.3125 91.78125 1.3125 C 93.476562 1.3125 94.839844 2.675781 94.839844 4.375 Z M 93.726562 3.664062 L 92.488281 3.664062 L 92.488281 2.425781 L 91.054688 2.425781 L 91.054688 3.664062 L 89.816406 3.664062 L 89.816406 5.097656 L 91.054688 5.097656 L 91.054688 6.320312 L 92.488281 6.320312 L 92.488281 5.082031 L 93.726562 5.082031 Z M 93.726562 3.664062 " fill-opacity="1" fill-rule="nonzero"/></g><g fill="#728fe8" fill-opacity="1"><g transform="translate(29.112822, 30.704249)"><g><path d="M 4.046875 -4.046875 L 4.046875 0 L 3.625 0 L 3.625 -1.875 L 1.09375 -1.875 L 1.09375 0 L 0.65625 0 L 0.65625 -4.046875 L 1.09375 -4.046875 L 1.09375 -2.25 L 3.625 -2.25 L 3.625 -4.046875 Z M 4.046875 -4.046875 "/></g></g></g><g fill="#728fe8" fill-opacity="1"><g transform="translate(34.978494, 30.704249)"><g><path d="M 3.21875 -1.390625 L 0.671875 -1.390625 C 0.703125 -1.078125 0.828125 -0.820312 1.046875 -0.625 C 1.265625 -0.425781 1.539062 -0.328125 1.875 -0.328125 C 2.0625 -0.328125 2.234375 -0.359375 2.390625 -0.421875 C 2.546875 -0.492188 2.679688 -0.597656 2.796875 -0.734375 L 3.03125 -0.46875 C 2.894531 -0.300781 2.722656 -0.175781 2.515625 -0.09375 C 2.316406 -0.0078125 2.097656 0.03125 1.859375 0.03125 C 1.546875 0.03125 1.269531 -0.0351562 1.03125 -0.171875 C 0.789062 -0.304688 0.601562 -0.488281 0.46875 -0.71875 C 0.332031 -0.957031 0.265625 -1.222656 0.265625 -1.515625 C 0.265625 -1.816406 0.328125 -2.082031 0.453125 -2.3125 C 0.585938 -2.550781 0.765625 -2.734375 0.984375 -2.859375 C 1.210938 -2.992188 1.46875 -3.0625 1.75 -3.0625 C 2.03125 -3.0625 2.28125 -2.992188 2.5 -2.859375 C 2.726562 -2.734375 2.90625 -2.550781 3.03125 -2.3125 C 3.15625 -2.082031 3.21875 -1.816406 3.21875 -1.515625 Z M 1.75 -2.71875 C 1.457031 -2.71875 1.210938 -2.625 1.015625 -2.4375 C 0.816406 -2.25 0.703125 -2.003906 0.671875 -1.703125 L 2.828125 -1.703125 C 2.804688 -2.003906 2.695312 -2.25 2.5 -2.4375 C 2.300781 -2.625 2.050781 -2.71875 1.75 -2.71875 Z M 1.75 -2.71875 "/></g></g></g><g fill="#728fe8" fill-opacity="1"><g transform="translate(39.635302, 30.704249)"><g><path d="M 1.640625 -3.0625 C 2.035156 -3.0625 2.335938 -2.960938 2.546875 -2.765625 C 2.765625 -2.566406 2.875 -2.273438 2.875 -1.890625 L 2.875 0 L 2.46875 0 L 2.46875 -0.46875 C 2.375 -0.3125 2.238281 -0.1875 2.0625 -0.09375 C 1.882812 -0.0078125 1.671875 0.03125 1.421875 0.03125 C 1.085938 0.03125 0.816406 -0.046875 0.609375 -0.203125 C 0.410156 -0.367188 0.3125 -0.585938 0.3125 -0.859375 C 0.3125 -1.117188 0.40625 -1.328125 0.59375 -1.484375 C 0.78125 -1.640625 1.078125 -1.71875 1.484375 -1.71875 L 2.453125 -1.71875 L 2.453125 -1.90625 C 2.453125 -2.164062 2.378906 -2.363281 2.234375 -2.5 C 2.085938 -2.632812 1.875 -2.703125 1.59375 -2.703125 C 1.40625 -2.703125 1.222656 -2.671875 1.046875 -2.609375 C 0.867188 -2.546875 0.710938 -2.457031 0.578125 -2.34375 L 0.40625 -2.65625 C 0.550781 -2.78125 0.734375 -2.878906 0.953125 -2.953125 C 1.171875 -3.023438 1.398438 -3.0625 1.640625 -3.0625 Z M 1.484375 -0.296875 C 1.722656 -0.296875 1.921875 -0.347656 2.078125 -0.453125 C 2.242188 -0.554688 2.367188 -0.707031 2.453125 -0.90625 L 2.453125 -1.40625 L 1.5 -1.40625 C 0.976562 -1.40625 0.71875 -1.222656 0.71875 -0.859375 C 0.71875 -0.679688 0.785156 -0.539062 0.921875 -0.4375 C 1.054688 -0.34375 1.242188 -0.296875 1.484375 -0.296875 Z M 1.484375 -0.296875 "/></g></g></g><g fill="#728fe8" fill-opacity="1"><g transform="translate(44.211133, 30.704249)"><g><path d="M 0.578125 -4.296875 L 0.984375 -4.296875 L 0.984375 0 L 0.578125 0 Z M 0.578125 -4.296875 "/></g></g></g><g fill="#728fe8" fill-opacity="1"><g transform="translate(46.93029, 30.704249)"><g><path d="M 2.171875 -0.1875 C 2.097656 -0.113281 2.003906 -0.0546875 1.890625 -0.015625 C 1.773438 0.015625 1.65625 0.03125 1.53125 0.03125 C 1.25 0.03125 1.03125 -0.046875 0.875 -0.203125 C 0.71875 -0.359375 0.640625 -0.578125 0.640625 -0.859375 L 0.640625 -2.6875 L 0.09375 -2.6875 L 0.09375 -3.046875 L 0.640625 -3.046875 L 0.640625 -3.703125 L 1.046875 -3.703125 L 1.046875 -3.046875 L 1.984375 -3.046875 L 1.984375 -2.6875 L 1.046875 -2.6875 L 1.046875 -0.875 C 1.046875 -0.695312 1.09375 -0.5625 1.1875 -0.46875 C 1.28125 -0.375 1.410156 -0.328125 1.578125 -0.328125 C 1.660156 -0.328125 1.738281 -0.335938 1.8125 -0.359375 C 1.894531 -0.390625 1.96875 -0.429688 2.03125 -0.484375 Z M 2.171875 -0.1875 "/></g></g></g><g fill="#728fe8" fill-opacity="1"><g transform="translate(50.441858, 30.704249)"><g><path d="M 2.125 -3.0625 C 2.5 -3.0625 2.800781 -2.953125 3.03125 -2.734375 C 3.257812 -2.515625 3.375 -2.191406 3.375 -1.765625 L 3.375 0 L 2.953125 0 L 2.953125 -1.71875 C 2.953125 -2.039062 2.875 -2.28125 2.71875 -2.4375 C 2.5625 -2.601562 2.335938 -2.6875 2.046875 -2.6875 C 1.722656 -2.6875 1.460938 -2.585938 1.265625 -2.390625 C 1.078125 -2.203125 0.984375 -1.9375 0.984375 -1.59375 L 0.984375 0 L 0.578125 0 L 0.578125 -4.296875 L 0.984375 -4.296875 L 0.984375 -2.515625 C 1.097656 -2.691406 1.25 -2.828125 1.4375 -2.921875 C 1.632812 -3.015625 1.863281 -3.0625 2.125 -3.0625 Z M 2.125 -3.0625 "/></g></g></g><g fill="#728fe8" fill-opacity="1"><g transform="translate(55.520899, 30.704249)"><g/></g></g><g fill="#728fe8" fill-opacity="1"><g transform="translate(58.199567, 30.704249)"><g><path d="M 2.421875 0.03125 C 2.015625 0.03125 1.648438 -0.0546875 1.328125 -0.234375 C 1.003906 -0.410156 0.75 -0.65625 0.5625 -0.96875 C 0.382812 -1.28125 0.296875 -1.628906 0.296875 -2.015625 C 0.296875 -2.410156 0.382812 -2.765625 0.5625 -3.078125 C 0.75 -3.390625 1.003906 -3.632812 1.328125 -3.8125 C 1.660156 -3.988281 2.023438 -4.078125 2.421875 -4.078125 C 2.722656 -4.078125 3 -4.023438 3.25 -3.921875 C 3.507812 -3.828125 3.726562 -3.679688 3.90625 -3.484375 L 3.625 -3.21875 C 3.3125 -3.539062 2.914062 -3.703125 2.4375 -3.703125 C 2.113281 -3.703125 1.820312 -3.628906 1.5625 -3.484375 C 1.300781 -3.335938 1.09375 -3.132812 0.9375 -2.875 C 0.789062 -2.625 0.71875 -2.335938 0.71875 -2.015625 C 0.71875 -1.703125 0.789062 -1.414062 0.9375 -1.15625 C 1.09375 -0.90625 1.300781 -0.707031 1.5625 -0.5625 C 1.820312 -0.414062 2.113281 -0.34375 2.4375 -0.34375 C 2.914062 -0.34375 3.3125 -0.503906 3.625 -0.828125 L 3.90625 -0.5625 C 3.726562 -0.363281 3.507812 -0.210938 3.25 -0.109375 C 3 -0.015625 2.722656 0.03125 2.421875 0.03125 Z M 2.421875 0.03125 "/></g></g></g><g fill="#728fe8" fill-opacity="1"><g transform="translate(63.521538, 30.704249)"><g><path d="M 3.21875 -1.390625 L 0.671875 -1.390625 C 0.703125 -1.078125 0.828125 -0.820312 1.046875 -0.625 C 1.265625 -0.425781 1.539062 -0.328125 1.875 -0.328125 C 2.0625 -0.328125 2.234375 -0.359375 2.390625 -0.421875 C 2.546875 -0.492188 2.679688 -0.597656 2.796875 -0.734375 L 3.03125 -0.46875 C 2.894531 -0.300781 2.722656 -0.175781 2.515625 -0.09375 C 2.316406 -0.0078125 2.097656 0.03125 1.859375 0.03125 C 1.546875 0.03125 1.269531 -0.0351562 1.03125 -0.171875 C 0.789062 -0.304688 0.601562 -0.488281 0.46875 -0.71875 C 0.332031 -0.957031 0.265625 -1.222656 0.265625 -1.515625 C 0.265625 -1.816406 0.328125 -2.082031 0.453125 -2.3125 C 0.585938 -2.550781 0.765625 -2.734375 0.984375 -2.859375 C 1.210938 -2.992188 1.46875 -3.0625 1.75 -3.0625 C 2.03125 -3.0625 2.28125 -2.992188 2.5 -2.859375 C 2.726562 -2.734375 2.90625 -2.550781 3.03125 -2.3125 C 3.15625 -2.082031 3.21875 -1.816406 3.21875 -1.515625 Z M 1.75 -2.71875 C 1.457031 -2.71875 1.210938 -2.625 1.015625 -2.4375 C 0.816406 -2.25 0.703125 -2.003906 0.671875 -1.703125 L 2.828125 -1.703125 C 2.804688 -2.003906 2.695312 -2.25 2.5 -2.4375 C 2.300781 -2.625 2.050781 -2.71875 1.75 -2.71875 Z M 1.75 -2.71875 "/></g></g></g><g fill="#728fe8" fill-opacity="1"><g transform="translate(68.178346, 30.704249)"><g><path d="M 2.125 -3.0625 C 2.5 -3.0625 2.800781 -2.953125 3.03125 -2.734375 C 3.257812 -2.515625 3.375 -2.191406 3.375 -1.765625 L 3.375 0 L 2.953125 0 L 2.953125 -1.71875 C 2.953125 -2.039062 2.875 -2.28125 2.71875 -2.4375 C 2.5625 -2.601562 2.335938 -2.6875 2.046875 -2.6875 C 1.722656 -2.6875 1.460938 -2.585938 1.265625 -2.390625 C 1.078125 -2.203125 0.984375 -1.9375 0.984375 -1.59375 L 0.984375 0 L 0.578125 0 L 0.578125 -3.046875 L 0.96875 -3.046875 L 0.96875 -2.484375 C 1.082031 -2.660156 1.238281 -2.800781 1.4375 -2.90625 C 1.632812 -3.007812 1.863281 -3.0625 2.125 -3.0625 Z M 2.125 -3.0625 "/></g></g></g><g fill="#728fe8" fill-opacity="1"><g transform="translate(73.257387, 30.704249)"><g><path d="M 2.171875 -0.1875 C 2.097656 -0.113281 2.003906 -0.0546875 1.890625 -0.015625 C 1.773438 0.015625 1.65625 0.03125 1.53125 0.03125 C 1.25 0.03125 1.03125 -0.046875 0.875 -0.203125 C 0.71875 -0.359375 0.640625 -0.578125 0.640625 -0.859375 L 0.640625 -2.6875 L 0.09375 -2.6875 L 0.09375 -3.046875 L 0.640625 -3.046875 L 0.640625 -3.703125 L 1.046875 -3.703125 L 1.046875 -3.046875 L 1.984375 -3.046875 L 1.984375 -2.6875 L 1.046875 -2.6875 L 1.046875 -0.875 C 1.046875 -0.695312 1.09375 -0.5625 1.1875 -0.46875 C 1.28125 -0.375 1.410156 -0.328125 1.578125 -0.328125 C 1.660156 -0.328125 1.738281 -0.335938 1.8125 -0.359375 C 1.894531 -0.390625 1.96875 -0.429688 2.03125 -0.484375 Z M 2.171875 -0.1875 "/></g></g></g><g fill="#728fe8" fill-opacity="1"><g transform="translate(76.768955, 30.704249)"><g><path d="M 3.21875 -1.390625 L 0.671875 -1.390625 C 0.703125 -1.078125 0.828125 -0.820312 1.046875 -0.625 C 1.265625 -0.425781 1.539062 -0.328125 1.875 -0.328125 C 2.0625 -0.328125 2.234375 -0.359375 2.390625 -0.421875 C 2.546875 -0.492188 2.679688 -0.597656 2.796875 -0.734375 L 3.03125 -0.46875 C 2.894531 -0.300781 2.722656 -0.175781 2.515625 -0.09375 C 2.316406 -0.0078125 2.097656 0.03125 1.859375 0.03125 C 1.546875 0.03125 1.269531 -0.0351562 1.03125 -0.171875 C 0.789062 -0.304688 0.601562 -0.488281 0.46875 -0.71875 C 0.332031 -0.957031 0.265625 -1.222656 0.265625 -1.515625 C 0.265625 -1.816406 0.328125 -2.082031 0.453125 -2.3125 C 0.585938 -2.550781 0.765625 -2.734375 0.984375 -2.859375 C 1.210938 -2.992188 1.46875 -3.0625 1.75 -3.0625 C 2.03125 -3.0625 2.28125 -2.992188 2.5 -2.859375 C 2.726562 -2.734375 2.90625 -2.550781 3.03125 -2.3125 C 3.15625 -2.082031 3.21875 -1.816406 3.21875 -1.515625 Z M 1.75 -2.71875 C 1.457031 -2.71875 1.210938 -2.625 1.015625 -2.4375 C 0.816406 -2.25 0.703125 -2.003906 0.671875 -1.703125 L 2.828125 -1.703125 C 2.804688 -2.003906 2.695312 -2.25 2.5 -2.4375 C 2.300781 -2.625 2.050781 -2.71875 1.75 -2.71875 Z M 1.75 -2.71875 "/></g></g></g><g fill="#728fe8" fill-opacity="1"><g transform="translate(81.425763, 30.704249)"><g><path d="M 0.96875 -2.453125 C 1.0625 -2.648438 1.203125 -2.800781 1.390625 -2.90625 C 1.585938 -3.007812 1.828125 -3.0625 2.109375 -3.0625 L 2.109375 -2.671875 L 2 -2.671875 C 1.6875 -2.671875 1.4375 -2.570312 1.25 -2.375 C 1.070312 -2.175781 0.984375 -1.898438 0.984375 -1.546875 L 0.984375 0 L 0.578125 0 L 0.578125 -3.046875 L 0.96875 -3.046875 Z M 0.96875 -2.453125 "/></g></g></g><g clip-path="url(#c30615806e)"><path stroke-linecap="butt" transform="matrix(0.739264, -0.00570592, 0.00570592, 0.739264, 86.935633, 30.137336)" fill="none" stroke-linejoin="miter" d="M -0.00134234 0.501133 L 60.922883 0.501095 " stroke="#728fe8" stroke-width="1" stroke-opacity="1" stroke-miterlimit="4"/></g></svg>