<svg xmlns="http://www.w3.org/2000/svg" xmlns:xlink="http://www.w3.org/1999/xlink" width="217" zoomAndPan="magnify" viewBox="0 0 162.75 34.499999" height="46" preserveAspectRatio="xMidYMid meet" version="1.0"><defs><g/><clipPath id="962e4aea5f"><path d="M 38 14 L 43.445312 14 L 43.445312 30 L 38 30 Z M 38 14 " clip-rule="nonzero"/></clipPath><clipPath id="44100e8515"><path d="M 28.660156 3 L 43.445312 3 L 43.445312 32 L 28.660156 32 Z M 28.660156 3 " clip-rule="nonzero"/></clipPath></defs><g fill="#728fe8" fill-opacity="1"><g transform="translate(49.086699, 19.736855)"><g><path d="M 1.234375 -0.84375 L 1.234375 -13.71875 C 1.234375 -14.164062 1.359375 -14.5 1.609375 -14.71875 C 1.867188 -14.9375 2.191406 -15.046875 2.578125 -15.046875 C 3.085938 -15.046875 3.476562 -14.957031 3.75 -14.78125 C 4.019531 -14.601562 4.320312 -14.222656 4.65625 -13.640625 L 7.1875 -9.015625 L 9.71875 -13.640625 C 10.050781 -14.222656 10.359375 -14.601562 10.640625 -14.78125 C 10.921875 -14.957031 11.316406 -15.046875 11.828125 -15.046875 C 12.203125 -15.046875 12.515625 -14.9375 12.765625 -14.71875 C 13.023438 -14.5 13.15625 -14.164062 13.15625 -13.71875 L 13.15625 -0.84375 C 13.15625 -0.582031 13.019531 -0.375 12.75 -0.21875 C 12.488281 -0.0703125 12.179688 0 11.828125 0 C 11.453125 0 11.132812 -0.0703125 10.875 -0.21875 C 10.613281 -0.375 10.484375 -0.582031 10.484375 -0.84375 L 10.484375 -9.703125 L 8.078125 -5.421875 C 7.878906 -5.054688 7.578125 -4.875 7.171875 -4.875 C 6.765625 -4.875 6.46875 -5.054688 6.28125 -5.421875 L 3.90625 -9.859375 L 3.90625 -0.84375 C 3.90625 -0.582031 3.769531 -0.375 3.5 -0.21875 C 3.238281 -0.0703125 2.929688 0 2.578125 0 C 2.203125 0 1.882812 -0.0703125 1.625 -0.21875 C 1.363281 -0.375 1.234375 -0.582031 1.234375 -0.84375 Z M 1.234375 -0.84375 "/></g></g></g><g fill="#728fe8" fill-opacity="1"><g transform="translate(63.482616, 19.736855)"><g><path d="M 1.234375 -0.84375 L 1.234375 -14.203125 C 1.234375 -14.460938 1.347656 -14.664062 1.578125 -14.8125 C 1.816406 -14.96875 2.09375 -15.046875 2.40625 -15.046875 L 9.734375 -15.046875 C 10.015625 -15.046875 10.222656 -14.929688 10.359375 -14.703125 C 10.503906 -14.472656 10.578125 -14.207031 10.578125 -13.90625 C 10.578125 -13.570312 10.5 -13.285156 10.34375 -13.046875 C 10.195312 -12.816406 9.992188 -12.703125 9.734375 -12.703125 L 3.90625 -12.703125 L 3.90625 -8.59375 L 7.046875 -8.59375 C 7.304688 -8.59375 7.507812 -8.484375 7.65625 -8.265625 C 7.8125 -8.054688 7.890625 -7.804688 7.890625 -7.515625 C 7.890625 -7.253906 7.816406 -7.015625 7.671875 -6.796875 C 7.523438 -6.585938 7.316406 -6.484375 7.046875 -6.484375 L 3.90625 -6.484375 L 3.90625 -2.34375 L 9.734375 -2.34375 C 9.992188 -2.34375 10.195312 -2.222656 10.34375 -1.984375 C 10.5 -1.753906 10.578125 -1.476562 10.578125 -1.15625 C 10.578125 -0.851562 10.503906 -0.582031 10.359375 -0.34375 C 10.222656 -0.113281 10.015625 0 9.734375 0 L 2.40625 0 C 2.09375 0 1.816406 -0.0703125 1.578125 -0.21875 C 1.347656 -0.375 1.234375 -0.582031 1.234375 -0.84375 Z M 1.234375 -0.84375 "/></g></g></g><g fill="#728fe8" fill-opacity="1"><g transform="translate(74.397976, 19.736855)"><g><path d="M 1.234375 -0.828125 L 1.234375 -14.234375 C 1.234375 -14.453125 1.34375 -14.640625 1.5625 -14.796875 C 1.78125 -14.960938 2.0625 -15.046875 2.40625 -15.046875 L 6.046875 -15.046875 C 7.523438 -15.046875 8.703125 -14.664062 9.578125 -13.90625 C 10.453125 -13.15625 10.890625 -11.96875 10.890625 -10.34375 L 10.890625 -4.71875 C 10.890625 -3.082031 10.453125 -1.882812 9.578125 -1.125 C 8.703125 -0.375 7.523438 0 6.046875 0 L 2.40625 0 C 2.0625 0 1.78125 -0.0820312 1.5625 -0.25 C 1.34375 -0.414062 1.234375 -0.609375 1.234375 -0.828125 Z M 3.90625 -2.34375 L 6.046875 -2.34375 C 7.492188 -2.34375 8.21875 -3.132812 8.21875 -4.71875 L 8.21875 -10.34375 C 8.21875 -11.914062 7.492188 -12.703125 6.046875 -12.703125 L 3.90625 -12.703125 Z M 3.90625 -2.34375 "/></g></g></g><g fill="#728fe8" fill-opacity="1"><g transform="translate(86.343088, 19.736855)"><g><path d="M 1.234375 -0.84375 L 1.234375 -14.234375 C 1.234375 -14.503906 1.363281 -14.707031 1.625 -14.84375 C 1.882812 -14.976562 2.195312 -15.046875 2.5625 -15.046875 C 2.9375 -15.046875 3.253906 -14.976562 3.515625 -14.84375 C 3.773438 -14.707031 3.90625 -14.503906 3.90625 -14.234375 L 3.90625 -0.84375 C 3.90625 -0.582031 3.769531 -0.375 3.5 -0.21875 C 3.238281 -0.0703125 2.929688 0 2.578125 0 C 2.203125 0 1.882812 -0.0703125 1.625 -0.21875 C 1.363281 -0.375 1.234375 -0.582031 1.234375 -0.84375 Z M 1.234375 -0.84375 "/></g></g></g><g fill="#728fe8" fill-opacity="1"><g transform="translate(91.491846, 19.736855)"><g><path d="M 1.09375 -4.59375 L 1.09375 -10.34375 C 1.09375 -11.957031 1.53125 -13.144531 2.40625 -13.90625 C 3.289062 -14.664062 4.4375 -15.046875 5.84375 -15.046875 C 7.289062 -15.046875 8.46875 -14.6875 9.375 -13.96875 C 10.289062 -13.257812 10.75 -12.316406 10.75 -11.140625 C 10.75 -10.628906 10.644531 -10.28125 10.4375 -10.09375 C 10.226562 -9.914062 9.882812 -9.828125 9.40625 -9.828125 C 8.53125 -9.828125 8.085938 -10.109375 8.078125 -10.671875 C 8.054688 -10.847656 8.035156 -11 8.015625 -11.125 C 7.992188 -11.257812 7.9375 -11.429688 7.84375 -11.640625 C 7.757812 -11.859375 7.648438 -12.035156 7.515625 -12.171875 C 7.378906 -12.316406 7.171875 -12.441406 6.890625 -12.546875 C 6.617188 -12.648438 6.300781 -12.703125 5.9375 -12.703125 C 4.488281 -12.703125 3.765625 -11.914062 3.765625 -10.34375 L 3.765625 -4.59375 C 3.765625 -3.007812 4.5 -2.21875 5.96875 -2.21875 C 6.40625 -2.21875 6.769531 -2.285156 7.0625 -2.421875 C 7.363281 -2.566406 7.578125 -2.765625 7.703125 -3.015625 C 7.835938 -3.265625 7.925781 -3.488281 7.96875 -3.6875 C 8.019531 -3.894531 8.054688 -4.140625 8.078125 -4.421875 C 8.117188 -4.984375 8.554688 -5.265625 9.390625 -5.265625 C 9.867188 -5.265625 10.210938 -5.171875 10.421875 -4.984375 C 10.640625 -4.804688 10.75 -4.460938 10.75 -3.953125 C 10.75 -2.710938 10.289062 -1.722656 9.375 -0.984375 C 8.46875 -0.242188 7.285156 0.125 5.828125 0.125 C 4.410156 0.125 3.265625 -0.253906 2.390625 -1.015625 C 1.523438 -1.773438 1.09375 -2.96875 1.09375 -4.59375 Z M 1.09375 -4.59375 "/></g></g></g><g fill="#728fe8" fill-opacity="1"><g transform="translate(102.819109, 19.736855)"><g><path d="M 0.1875 -1.109375 C 0.1875 -1.140625 0.195312 -1.207031 0.21875 -1.3125 L 4.203125 -14.265625 C 4.285156 -14.554688 4.488281 -14.78125 4.8125 -14.9375 C 5.132812 -15.09375 5.5 -15.171875 5.90625 -15.171875 C 6.320312 -15.171875 6.691406 -15.09375 7.015625 -14.9375 C 7.347656 -14.78125 7.554688 -14.554688 7.640625 -14.265625 L 11.609375 -1.3125 C 11.640625 -1.207031 11.65625 -1.140625 11.65625 -1.109375 C 11.65625 -0.804688 11.46875 -0.546875 11.09375 -0.328125 C 10.726562 -0.109375 10.351562 0 9.96875 0 C 9.457031 0 9.15625 -0.175781 9.0625 -0.53125 L 8.28125 -3.28125 L 3.5625 -3.28125 L 2.78125 -0.53125 C 2.6875 -0.175781 2.382812 0 1.875 0 C 1.476562 0 1.097656 -0.101562 0.734375 -0.3125 C 0.367188 -0.53125 0.1875 -0.796875 0.1875 -1.109375 Z M 4.125 -5.375 L 7.703125 -5.375 L 5.90625 -11.703125 Z M 4.125 -5.375 "/></g></g></g><g fill="#728fe8" fill-opacity="1"><g transform="translate(114.661244, 19.736855)"><g><path d="M 1.234375 -0.84375 L 1.234375 -14.234375 C 1.234375 -14.503906 1.363281 -14.707031 1.625 -14.84375 C 1.882812 -14.976562 2.195312 -15.046875 2.5625 -15.046875 C 2.9375 -15.046875 3.253906 -14.976562 3.515625 -14.84375 C 3.773438 -14.707031 3.90625 -14.503906 3.90625 -14.234375 L 3.90625 -2.34375 L 8.9375 -2.34375 C 9.1875 -2.34375 9.378906 -2.222656 9.515625 -1.984375 C 9.660156 -1.753906 9.734375 -1.484375 9.734375 -1.171875 C 9.734375 -0.859375 9.660156 -0.582031 9.515625 -0.34375 C 9.378906 -0.113281 9.1875 0 8.9375 0 L 2.40625 0 C 2.09375 0 1.816406 -0.0703125 1.578125 -0.21875 C 1.347656 -0.375 1.234375 -0.582031 1.234375 -0.84375 Z M 1.234375 -0.84375 "/></g></g></g><g fill="#728fe8" fill-opacity="1"><g transform="translate(54.074101, 31.766483)"><g><path d="M 0.78125 0 C 0.726562 0 0.679688 -0.015625 0.640625 -0.046875 C 0.609375 -0.0859375 0.59375 -0.140625 0.59375 -0.203125 L 0.59375 -5.40625 C 0.59375 -5.457031 0.609375 -5.5 0.640625 -5.53125 C 0.679688 -5.570312 0.726562 -5.59375 0.78125 -5.59375 L 2.96875 -5.59375 C 3.40625 -5.59375 3.78125 -5.523438 4.09375 -5.390625 C 4.414062 -5.265625 4.664062 -5.066406 4.84375 -4.796875 C 5.019531 -4.523438 5.109375 -4.1875 5.109375 -3.78125 C 5.109375 -3.382812 5.019531 -3.050781 4.84375 -2.78125 C 4.664062 -2.519531 4.414062 -2.328125 4.09375 -2.203125 C 3.78125 -2.078125 3.40625 -2.015625 2.96875 -2.015625 L 1.90625 -2.015625 L 1.90625 -0.203125 C 1.90625 -0.140625 1.882812 -0.0859375 1.84375 -0.046875 C 1.8125 -0.015625 1.765625 0 1.703125 0 Z M 1.890625 -3 L 2.9375 -3 C 3.207031 -3 3.414062 -3.066406 3.5625 -3.203125 C 3.71875 -3.335938 3.796875 -3.535156 3.796875 -3.796875 C 3.796875 -4.035156 3.726562 -4.226562 3.59375 -4.375 C 3.457031 -4.519531 3.238281 -4.59375 2.9375 -4.59375 L 1.890625 -4.59375 Z M 1.890625 -3 "/></g></g></g><g fill="#728fe8" fill-opacity="1"><g transform="translate(62.6249, 31.766483)"><g><path d="M 0.78125 0 C 0.726562 0 0.679688 -0.015625 0.640625 -0.046875 C 0.609375 -0.0859375 0.59375 -0.140625 0.59375 -0.203125 L 0.59375 -5.40625 C 0.59375 -5.457031 0.609375 -5.5 0.640625 -5.53125 C 0.679688 -5.570312 0.726562 -5.59375 0.78125 -5.59375 L 1.6875 -5.59375 C 1.738281 -5.59375 1.78125 -5.570312 1.8125 -5.53125 C 1.851562 -5.5 1.875 -5.457031 1.875 -5.40625 L 1.875 -1.078125 L 4.359375 -1.078125 C 4.421875 -1.078125 4.46875 -1.054688 4.5 -1.015625 C 4.539062 -0.984375 4.5625 -0.9375 4.5625 -0.875 L 4.5625 -0.203125 C 4.5625 -0.140625 4.539062 -0.0859375 4.5 -0.046875 C 4.46875 -0.015625 4.421875 0 4.359375 0 Z M 0.78125 0 "/></g></g></g><g fill="#728fe8" fill-opacity="1"><g transform="translate(70.535326, 31.766483)"><g><path d="M 0.265625 0 C 0.210938 0 0.171875 -0.015625 0.140625 -0.046875 C 0.109375 -0.0859375 0.09375 -0.128906 0.09375 -0.171875 C 0.09375 -0.191406 0.0976562 -0.210938 0.109375 -0.234375 L 2.015625 -5.390625 C 2.023438 -5.441406 2.050781 -5.488281 2.09375 -5.53125 C 2.144531 -5.570312 2.210938 -5.59375 2.296875 -5.59375 L 3.328125 -5.59375 C 3.410156 -5.59375 3.472656 -5.570312 3.515625 -5.53125 C 3.566406 -5.488281 3.601562 -5.441406 3.625 -5.390625 L 5.53125 -0.234375 C 5.539062 -0.210938 5.546875 -0.191406 5.546875 -0.171875 C 5.546875 -0.128906 5.523438 -0.0859375 5.484375 -0.046875 C 5.453125 -0.015625 5.414062 0 5.375 0 L 4.53125 0 C 4.457031 0 4.398438 -0.015625 4.359375 -0.046875 C 4.316406 -0.0859375 4.289062 -0.125 4.28125 -0.15625 L 3.9375 -1.0625 L 1.6875 -1.0625 L 1.359375 -0.15625 C 1.335938 -0.125 1.304688 -0.0859375 1.265625 -0.046875 C 1.234375 -0.015625 1.179688 0 1.109375 0 Z M 1.984375 -2.09375 L 3.640625 -2.09375 L 2.8125 -4.390625 Z M 1.984375 -2.09375 "/></g></g></g><g fill="#728fe8" fill-opacity="1"><g transform="translate(79.374295, 31.766483)"><g><path d="M 2.03125 0 C 1.96875 0 1.914062 -0.015625 1.875 -0.046875 C 1.84375 -0.0859375 1.828125 -0.140625 1.828125 -0.203125 L 1.828125 -4.484375 L 0.375 -4.484375 C 0.3125 -4.484375 0.257812 -4.5 0.21875 -4.53125 C 0.1875 -4.570312 0.171875 -4.625 0.171875 -4.6875 L 0.171875 -5.40625 C 0.171875 -5.457031 0.1875 -5.5 0.21875 -5.53125 C 0.257812 -5.570312 0.3125 -5.59375 0.375 -5.59375 L 4.5625 -5.59375 C 4.613281 -5.59375 4.660156 -5.570312 4.703125 -5.53125 C 4.742188 -5.5 4.765625 -5.457031 4.765625 -5.40625 L 4.765625 -4.6875 C 4.765625 -4.625 4.742188 -4.570312 4.703125 -4.53125 C 4.660156 -4.5 4.613281 -4.484375 4.5625 -4.484375 L 3.109375 -4.484375 L 3.109375 -0.203125 C 3.109375 -0.140625 3.085938 -0.0859375 3.046875 -0.046875 C 3.015625 -0.015625 2.96875 0 2.90625 0 Z M 2.03125 0 "/></g></g></g><g fill="#728fe8" fill-opacity="1"><g transform="translate(87.516857, 31.766483)"><g><path d="M 0.78125 0 C 0.726562 0 0.679688 -0.015625 0.640625 -0.046875 C 0.609375 -0.0859375 0.59375 -0.140625 0.59375 -0.203125 L 0.59375 -5.40625 C 0.59375 -5.457031 0.609375 -5.5 0.640625 -5.53125 C 0.679688 -5.570312 0.726562 -5.59375 0.78125 -5.59375 L 4.359375 -5.59375 C 4.421875 -5.59375 4.46875 -5.570312 4.5 -5.53125 C 4.539062 -5.5 4.5625 -5.457031 4.5625 -5.40625 L 4.5625 -4.71875 C 4.5625 -4.65625 4.539062 -4.601562 4.5 -4.5625 C 4.46875 -4.53125 4.421875 -4.515625 4.359375 -4.515625 L 1.84375 -4.515625 L 1.84375 -3.171875 L 4.203125 -3.171875 C 4.253906 -3.171875 4.300781 -3.148438 4.34375 -3.109375 C 4.382812 -3.078125 4.40625 -3.03125 4.40625 -2.96875 L 4.40625 -2.28125 C 4.40625 -2.226562 4.382812 -2.179688 4.34375 -2.140625 C 4.300781 -2.109375 4.253906 -2.09375 4.203125 -2.09375 L 1.84375 -2.09375 L 1.84375 -0.203125 C 1.84375 -0.140625 1.820312 -0.0859375 1.78125 -0.046875 C 1.75 -0.015625 1.703125 0 1.640625 0 Z M 0.78125 0 "/></g></g></g><g fill="#728fe8" fill-opacity="1"><g transform="translate(95.595383, 31.766483)"><g><path d="M 2.8125 0.078125 C 2.332031 0.078125 1.914062 0 1.5625 -0.15625 C 1.207031 -0.320312 0.929688 -0.566406 0.734375 -0.890625 C 0.535156 -1.210938 0.429688 -1.617188 0.421875 -2.109375 C 0.410156 -2.335938 0.40625 -2.5625 0.40625 -2.78125 C 0.40625 -3.007812 0.410156 -3.242188 0.421875 -3.484375 C 0.429688 -3.960938 0.535156 -4.363281 0.734375 -4.6875 C 0.941406 -5.019531 1.222656 -5.269531 1.578125 -5.4375 C 1.929688 -5.601562 2.34375 -5.6875 2.8125 -5.6875 C 3.28125 -5.6875 3.691406 -5.601562 4.046875 -5.4375 C 4.398438 -5.269531 4.675781 -5.019531 4.875 -4.6875 C 5.082031 -4.363281 5.195312 -3.960938 5.21875 -3.484375 C 5.226562 -3.242188 5.234375 -3.007812 5.234375 -2.78125 C 5.234375 -2.5625 5.226562 -2.335938 5.21875 -2.109375 C 5.195312 -1.617188 5.085938 -1.210938 4.890625 -0.890625 C 4.691406 -0.566406 4.414062 -0.320312 4.0625 -0.15625 C 3.707031 0 3.289062 0.078125 2.8125 0.078125 Z M 2.8125 -0.953125 C 3.125 -0.953125 3.378906 -1.046875 3.578125 -1.234375 C 3.773438 -1.421875 3.878906 -1.722656 3.890625 -2.140625 C 3.898438 -2.378906 3.90625 -2.597656 3.90625 -2.796875 C 3.90625 -3.003906 3.898438 -3.222656 3.890625 -3.453125 C 3.890625 -3.734375 3.835938 -3.960938 3.734375 -4.140625 C 3.640625 -4.316406 3.515625 -4.441406 3.359375 -4.515625 C 3.203125 -4.597656 3.019531 -4.640625 2.8125 -4.640625 C 2.613281 -4.640625 2.429688 -4.597656 2.265625 -4.515625 C 2.109375 -4.441406 1.984375 -4.316406 1.890625 -4.140625 C 1.796875 -3.960938 1.742188 -3.734375 1.734375 -3.453125 C 1.722656 -3.222656 1.71875 -3.003906 1.71875 -2.796875 C 1.71875 -2.597656 1.722656 -2.378906 1.734375 -2.140625 C 1.742188 -1.722656 1.847656 -1.421875 2.046875 -1.234375 C 2.242188 -1.046875 2.5 -0.953125 2.8125 -0.953125 Z M 2.8125 -0.953125 "/></g></g></g><g fill="#728fe8" fill-opacity="1"><g transform="translate(104.426345, 31.766483)"><g><path d="M 0.78125 0 C 0.726562 0 0.679688 -0.015625 0.640625 -0.046875 C 0.609375 -0.0859375 0.59375 -0.140625 0.59375 -0.203125 L 0.59375 -5.40625 C 0.59375 -5.457031 0.609375 -5.5 0.640625 -5.53125 C 0.679688 -5.570312 0.726562 -5.59375 0.78125 -5.59375 L 2.90625 -5.59375 C 3.570312 -5.59375 4.097656 -5.441406 4.484375 -5.140625 C 4.867188 -4.835938 5.0625 -4.394531 5.0625 -3.8125 C 5.0625 -3.425781 4.96875 -3.101562 4.78125 -2.84375 C 4.59375 -2.582031 4.34375 -2.382812 4.03125 -2.25 L 5.171875 -0.25 C 5.179688 -0.21875 5.1875 -0.191406 5.1875 -0.171875 C 5.1875 -0.128906 5.171875 -0.0859375 5.140625 -0.046875 C 5.109375 -0.015625 5.070312 0 5.03125 0 L 4.125 0 C 4.03125 0 3.957031 -0.0234375 3.90625 -0.078125 C 3.863281 -0.128906 3.832031 -0.175781 3.8125 -0.21875 L 2.828125 -2.046875 L 1.859375 -2.046875 L 1.859375 -0.203125 C 1.859375 -0.140625 1.835938 -0.0859375 1.796875 -0.046875 C 1.765625 -0.015625 1.71875 0 1.65625 0 Z M 1.859375 -3.0625 L 2.890625 -3.0625 C 3.179688 -3.0625 3.394531 -3.128906 3.53125 -3.265625 C 3.675781 -3.398438 3.75 -3.585938 3.75 -3.828125 C 3.75 -4.066406 3.679688 -4.253906 3.546875 -4.390625 C 3.410156 -4.523438 3.191406 -4.59375 2.890625 -4.59375 L 1.859375 -4.59375 Z M 1.859375 -3.0625 "/></g></g></g><g fill="#728fe8" fill-opacity="1"><g transform="translate(113.089214, 31.766483)"><g><path d="M 0.796875 0 C 0.734375 0 0.679688 -0.015625 0.640625 -0.046875 C 0.609375 -0.0859375 0.59375 -0.140625 0.59375 -0.203125 L 0.59375 -5.40625 C 0.59375 -5.457031 0.609375 -5.5 0.640625 -5.53125 C 0.679688 -5.570312 0.734375 -5.59375 0.796875 -5.59375 L 1.546875 -5.59375 C 1.617188 -5.59375 1.675781 -5.570312 1.71875 -5.53125 C 1.757812 -5.488281 1.785156 -5.457031 1.796875 -5.4375 L 3.28125 -2.734375 L 4.765625 -5.4375 C 4.773438 -5.457031 4.796875 -5.488281 4.828125 -5.53125 C 4.867188 -5.570312 4.929688 -5.59375 5.015625 -5.59375 L 5.765625 -5.59375 C 5.816406 -5.59375 5.859375 -5.570312 5.890625 -5.53125 C 5.929688 -5.5 5.953125 -5.457031 5.953125 -5.40625 L 5.953125 -0.203125 C 5.953125 -0.140625 5.929688 -0.0859375 5.890625 -0.046875 C 5.859375 -0.015625 5.816406 0 5.765625 0 L 4.9375 0 C 4.882812 0 4.835938 -0.015625 4.796875 -0.046875 C 4.765625 -0.0859375 4.75 -0.140625 4.75 -0.203125 L 4.75 -3.421875 L 3.734375 -1.53125 C 3.710938 -1.476562 3.679688 -1.429688 3.640625 -1.390625 C 3.597656 -1.359375 3.539062 -1.34375 3.46875 -1.34375 L 3.09375 -1.34375 C 3.019531 -1.34375 2.960938 -1.359375 2.921875 -1.390625 C 2.878906 -1.429688 2.84375 -1.476562 2.8125 -1.53125 L 1.8125 -3.421875 L 1.8125 -0.203125 C 1.8125 -0.140625 1.789062 -0.0859375 1.75 -0.046875 C 1.71875 -0.015625 1.671875 0 1.609375 0 Z M 0.796875 0 "/></g></g></g><path fill="#f4c392" d="M 35.824219 14.785156 L 35.738281 14.785156 C 35.589844 14.785156 35.445312 14.777344 35.308594 14.765625 L 36.070312 15.863281 L 36.832031 14.707031 C 36.5 14.761719 36.164062 14.785156 35.824219 14.785156 Z M 35.824219 14.785156 " fill-opacity="1" fill-rule="nonzero"/><path fill="#27aae1" d="M 33.460938 14.316406 C 33.742188 14.777344 33.984375 15.382812 34.1875 16.117188 C 34.191406 16.121094 34.199219 16.128906 34.203125 16.132812 L 35.25 17.371094 L 35.96875 16.027344 L 35.074219 14.746094 C 34.511719 14.691406 33.972656 14.546875 33.460938 14.316406 Z M 33.460938 14.316406 " fill-opacity="1" fill-rule="nonzero"/><path fill="#007eaa" d="M 35.144531 17.519531 L 34.285156 16.507812 C 34.363281 16.828125 34.433594 17.171875 34.496094 17.535156 Z M 35.144531 17.519531 " fill-opacity="1" fill-rule="nonzero"/><path fill="#c49a6c" d="M 34.9375 20.296875 C 35.003906 20.289062 35.035156 20.316406 35.035156 20.382812 L 35.035156 20.667969 L 35.363281 20.667969 C 35.492188 20.601562 36.074219 20.328125 36.394531 20.496094 C 36.488281 20.542969 36.546875 20.613281 36.574219 20.714844 C 36.707031 20.699219 36.949219 20.6875 37.140625 20.777344 L 36.925781 17.644531 L 32.945312 17.757812 L 33.175781 20.152344 C 33.179688 20.171875 33.175781 20.191406 33.164062 20.207031 C 33.988281 20.371094 34.921875 20.296875 34.9375 20.296875 Z M 34.9375 20.296875 " fill-opacity="1" fill-rule="nonzero"/><path fill="#ffdcb6" d="M 36.523438 20.898438 C 36.460938 20.914062 36.425781 20.886719 36.421875 20.824219 C 36.40625 20.710938 36.351562 20.671875 36.3125 20.652344 C 36.113281 20.546875 35.675781 20.714844 35.472656 20.8125 L 35.472656 22.121094 C 35.621094 22.183594 36.054688 22.34375 36.457031 22.351562 C 36.859375 22.363281 37.082031 22.074219 37.222656 21.320312 C 37.25 21.171875 37.230469 21.066406 37.15625 20.996094 C 37.003906 20.84375 36.648438 20.875 36.523438 20.898438 Z M 36.523438 20.898438 " fill-opacity="1" fill-rule="nonzero"/><path fill="#ffffff" d="M 32.371094 16.832031 C 32.617188 17.066406 32.851562 17.3125 33.070312 17.574219 C 33.070312 17.574219 33.070312 17.578125 33.074219 17.578125 L 34.316406 17.542969 C 34.066406 16.085938 33.703125 14.992188 33.230469 14.289062 Z M 32.371094 16.832031 " fill-opacity="1" fill-rule="nonzero"/><path fill="#754c29" d="M 30.257812 8.480469 C 30.609375 8.421875 31.03125 8.632812 31.289062 8.972656 C 31.414062 8.601562 31.6875 8.203125 32.269531 7.941406 C 33.546875 7.363281 34.019531 7.097656 34.523438 6.515625 C 34.449219 6.40625 34.378906 6.289062 34.316406 6.167969 C 34.292969 6.117188 34.308594 6.078125 34.359375 6.054688 C 34.414062 6.027344 34.453125 6.042969 34.476562 6.097656 C 34.488281 6.113281 35.351562 7.902344 37.734375 8.621094 C 40.195312 9.359375 40.375 9.550781 40.804688 10.011719 L 40.8125 10.019531 C 40.851562 10.0625 40.851562 10.105469 40.808594 10.144531 C 40.765625 10.183594 40.722656 10.183594 40.683594 10.140625 L 40.675781 10.132812 C 40.613281 10.066406 40.558594 10.007812 40.5 9.949219 C 40.5 10.480469 40.398438 12.28125 39.171875 13.542969 C 39.039062 13.679688 38.894531 13.804688 38.738281 13.921875 C 39.160156 13.988281 40.097656 14.171875 40.933594 14.59375 C 40.597656 13.621094 40.816406 12.234375 41.046875 10.769531 C 41.441406 8.242188 41.890625 5.382812 39.515625 4.09375 C 37.464844 2.988281 35.648438 3.175781 34.488281 3.53125 C 33.226562 3.914062 32.4375 4.570312 32.429688 4.578125 C 32.417969 4.585938 32.40625 4.589844 32.394531 4.59375 C 31.109375 4.960938 30.316406 5.761719 30.046875 6.972656 C 29.933594 7.503906 29.917969 8.039062 30 8.578125 C 30.078125 8.53125 30.167969 8.496094 30.257812 8.480469 Z M 30.257812 8.480469 " fill-opacity="1" fill-rule="nonzero"/><path fill="#ffffff" d="M 40.164062 17 L 38.542969 14.207031 C 37.972656 16.480469 37.988281 20.890625 38.113281 24.347656 C 38.597656 21.148438 39.507812 20.066406 39.730469 19.847656 L 39.242188 18.597656 C 39.117188 18.941406 39.027344 19.292969 38.972656 19.65625 C 38.96875 19.703125 38.9375 19.730469 38.886719 19.730469 L 38.875 19.730469 C 38.816406 19.722656 38.789062 19.6875 38.800781 19.628906 C 39.078125 17.828125 39.898438 17.167969 40.164062 17 Z M 40.164062 17 " fill-opacity="1" fill-rule="nonzero"/><path fill="#ffdcb6" d="M 30.703125 11.089844 C 30.816406 11.070312 30.917969 11.019531 31.003906 10.941406 C 31.015625 10.910156 31.039062 10.890625 31.074219 10.886719 C 31.105469 10.882812 31.132812 10.894531 31.152344 10.917969 C 31.175781 10.941406 31.179688 10.964844 31.175781 10.996094 C 31.28125 11.640625 31.515625 12.230469 31.882812 12.773438 C 32.230469 13.289062 32.679688 13.703125 33.226562 14.011719 L 33.238281 14.011719 L 33.246094 14.015625 C 33.25 14.015625 33.253906 14.019531 33.257812 14.023438 L 33.261719 14.027344 C 33.261719 14.027344 33.265625 14.027344 33.265625 14.03125 C 33.804688 14.324219 34.429688 14.507812 35.140625 14.578125 C 35.332031 14.597656 35.53125 14.605469 35.734375 14.609375 C 37.144531 14.628906 38.261719 14.226562 39.046875 13.421875 C 40.414062 12.015625 40.320312 9.828125 40.320312 9.808594 C 40.320312 9.804688 40.320312 9.800781 40.320312 9.796875 C 39.980469 9.542969 39.398438 9.304688 37.683594 8.785156 C 36.015625 8.285156 35.070312 7.273438 34.628906 6.664062 C 34.109375 7.246094 33.621094 7.519531 32.339844 8.097656 C 31.730469 8.375 31.492188 8.808594 31.410156 9.183594 C 31.410156 9.195312 31.40625 9.207031 31.402344 9.21875 C 31.355469 9.453125 31.355469 9.683594 31.40625 9.914062 C 31.421875 9.96875 31.398438 10.003906 31.34375 10.019531 C 31.335938 10.019531 31.328125 10.019531 31.320312 10.019531 C 31.277344 10.023438 31.246094 10 31.234375 9.957031 C 31.183594 9.703125 31.183594 9.453125 31.230469 9.203125 C 31.027344 8.839844 30.617188 8.597656 30.289062 8.652344 C 30.074219 8.6875 29.890625 8.84375 29.773438 9.09375 C 29.652344 9.351562 29.613281 9.675781 29.671875 10.007812 C 29.726562 10.339844 29.867188 10.632812 30.070312 10.839844 C 30.265625 11.035156 30.488281 11.125 30.703125 11.089844 Z M 30.703125 11.089844 " fill-opacity="1" fill-rule="nonzero"/><path fill="#ffffff" d="M 35.296875 22.089844 L 35.296875 20.84375 L 35.035156 20.84375 L 35.042969 22.089844 Z M 35.296875 22.089844 " fill-opacity="1" fill-rule="nonzero"/><path fill="#27aae1" d="M 37.101562 17.582031 L 37.328125 20.929688 C 37.40625 21.039062 37.429688 21.179688 37.398438 21.351562 C 37.386719 21.402344 37.378906 21.453125 37.367188 21.503906 C 37.367188 21.511719 37.371094 21.519531 37.371094 21.523438 L 37.496094 23.34375 C 37.496094 23.371094 37.488281 23.390625 37.472656 23.410156 C 37.457031 23.429688 37.4375 23.4375 37.410156 23.4375 L 34.902344 23.574219 C 34.902344 23.75 34.902344 23.929688 34.898438 24.109375 L 37.925781 24.109375 C 37.84375 21.621094 37.820312 18.679688 38.027344 16.398438 Z M 37.101562 17.582031 " fill-opacity="1" fill-rule="nonzero"/><path fill="#a97c50" d="M 37.222656 21.980469 C 37.085938 22.300781 36.867188 22.527344 36.476562 22.527344 L 36.453125 22.527344 C 35.96875 22.515625 35.464844 22.308594 35.367188 22.265625 L 35.042969 22.265625 L 35.042969 22.523438 C 35.042969 22.578125 35.015625 22.605469 34.960938 22.609375 C 34.925781 22.613281 34.628906 22.640625 34.179688 22.640625 C 33.957031 22.640625 33.695312 22.636719 33.410156 22.613281 L 33.492188 23.472656 L 37.3125 23.269531 Z M 37.222656 21.980469 " fill-opacity="1" fill-rule="nonzero"/><path fill="#e6e7e8" d="M 34.726562 23.582031 L 34.296875 23.605469 C 34.371094 23.769531 34.539062 24.175781 34.710938 24.875 C 34.714844 24.65625 34.71875 24.4375 34.722656 24.21875 C 34.71875 24.210938 34.71875 24.203125 34.71875 24.195312 C 34.71875 24.1875 34.71875 24.175781 34.722656 24.167969 C 34.722656 23.972656 34.726562 23.777344 34.726562 23.582031 Z M 34.726562 23.582031 " fill-opacity="1" fill-rule="nonzero"/><path fill="#27aae1" d="M 36.855469 17.472656 L 36.074219 16.199219 L 35.375 17.511719 Z M 36.855469 17.472656 " fill-opacity="1" fill-rule="nonzero"/><path fill="#ffdcb6" d="M 41.324219 24.386719 C 41.34375 24.789062 41.363281 25.199219 41.382812 25.621094 C 41.84375 25.660156 42.179688 25.566406 42.382812 25.335938 C 42.671875 25.007812 42.609375 24.484375 42.578125 24.296875 Z M 41.324219 24.386719 " fill-opacity="1" fill-rule="nonzero"/><path fill="#ffdcb6" d="M 38.488281 30.476562 C 38.796875 30.304688 39.121094 30.179688 39.464844 30.101562 L 39.410156 29.335938 C 39.410156 29.328125 39.410156 29.320312 39.410156 29.3125 L 38.289062 29.320312 C 38.234375 29.320312 38.203125 29.292969 38.203125 29.238281 C 38.203125 29.21875 38.171875 28.855469 38.132812 28.253906 L 37.167969 28.253906 L 37.414062 30.34375 Z M 38.488281 30.476562 " fill-opacity="1" fill-rule="nonzero"/><path fill="#ffffff" d="M 41.304688 23.941406 C 41.308594 24.03125 41.3125 24.121094 41.316406 24.210938 L 42.640625 24.117188 L 42.660156 24.117188 L 42.660156 23.867188 L 41.328125 23.945312 C 41.320312 23.945312 41.3125 23.945312 41.304688 23.941406 Z M 41.304688 23.941406 " fill-opacity="1" fill-rule="nonzero"/><path fill="#27aae1" d="M 38.496094 30.65625 L 37.371094 30.511719 C 37.253906 30.71875 37.246094 31.21875 37.292969 31.625 C 37.308594 31.722656 37.675781 31.71875 38.097656 31.714844 C 38.195312 31.714844 38.296875 31.714844 38.40625 31.714844 C 38.699219 31.714844 39.042969 31.722656 39.4375 31.75 C 40.246094 31.808594 40.777344 31.691406 40.933594 31.425781 C 41.039062 31.238281 40.96875 30.96875 40.726562 30.621094 C 40.105469 29.734375 38.570312 30.636719 38.554688 30.644531 C 38.539062 30.65625 38.519531 30.660156 38.496094 30.65625 Z M 38.496094 30.65625 " fill-opacity="1" fill-rule="nonzero"/><g clip-path="url(#962e4aea5f)"><path fill="#ffffff" d="M 38.675781 14.089844 L 40.359375 16.988281 C 40.371094 17.011719 40.375 17.03125 40.367188 17.058594 C 40.359375 17.082031 40.347656 17.097656 40.324219 17.109375 C 40.316406 17.113281 39.757812 17.402344 39.335938 18.359375 C 39.34375 18.367188 39.347656 18.375 39.347656 18.382812 L 39.917969 19.839844 C 39.933594 19.878906 39.925781 19.914062 39.890625 19.9375 C 39.878906 19.949219 38.667969 21.011719 38.1875 25.144531 C 38.183594 25.171875 38.171875 25.191406 38.148438 25.207031 C 38.234375 27.222656 38.347656 28.78125 38.375 29.148438 L 41.375 29.128906 C 41.292969 27.476562 41.214844 25.824219 41.144531 24.3125 C 40.976562 20.671875 40.851562 17.835938 40.851562 17.796875 C 40.847656 17.738281 40.875 17.707031 40.933594 17.707031 C 40.992188 17.703125 41.023438 17.730469 41.027344 17.789062 C 41.027344 17.828125 41.140625 20.390625 41.296875 23.777344 C 41.304688 23.773438 41.3125 23.773438 41.320312 23.769531 L 43.042969 23.667969 C 43.199219 19.71875 42.898438 17.222656 42.09375 15.820312 C 41.394531 14.601562 39.300781 14.1875 38.675781 14.089844 Z M 38.675781 14.089844 " fill-opacity="1" fill-rule="nonzero"/></g><path fill="#27aae1" d="M 38.417969 14.054688 C 38.007812 14.289062 37.570312 14.453125 37.105469 14.546875 C 37.105469 14.5625 37.101562 14.578125 37.09375 14.589844 L 36.226562 15.902344 L 37.070312 17.28125 L 38.050781 16.03125 C 38.066406 16.011719 38.082031 16.003906 38.105469 16 C 38.183594 15.261719 38.285156 14.597656 38.417969 14.054688 Z M 38.417969 14.054688 " fill-opacity="1" fill-rule="nonzero"/><path fill="#603913" d="M 30.761719 14.765625 C 31.5625 14.277344 32.496094 14.097656 32.941406 14.035156 C 32.457031 13.730469 32.054688 13.339844 31.734375 12.867188 C 31.378906 12.339844 31.140625 11.769531 31.023438 11.148438 C 30.898438 11.230469 30.757812 11.273438 30.609375 11.273438 C 30.585938 11.273438 30.566406 11.269531 30.542969 11.269531 C 30.601562 11.664062 30.816406 13.203125 30.761719 14.765625 Z M 30.761719 14.765625 " fill-opacity="1" fill-rule="nonzero"/><path fill="#d1d3d4" d="M 37.933594 24.285156 L 34.894531 24.285156 C 34.878906 25.65625 34.824219 27.113281 34.785156 28.074219 L 38.117188 28.074219 C 38.0625 27.171875 37.988281 25.820312 37.933594 24.285156 Z M 37.933594 24.285156 " fill-opacity="1" fill-rule="nonzero"/><path fill="#ffffff" d="M 34.695312 25.523438 C 34.675781 25.511719 34.664062 25.496094 34.660156 25.472656 C 34.421875 24.285156 34.152344 23.710938 34.105469 23.617188 L 33.417969 23.652344 L 33.414062 23.652344 C 33.359375 23.652344 33.332031 23.628906 33.328125 23.574219 L 33.234375 22.601562 C 32.601562 22.546875 31.867188 22.421875 31.179688 22.160156 L 31.386719 29.078125 L 34.566406 29.078125 C 34.582031 28.710938 34.65625 27.183594 34.695312 25.523438 Z M 34.695312 25.523438 " fill-opacity="1" fill-rule="nonzero"/><path fill="#d1d3d4" d="M 34.867188 22.445312 L 34.859375 20.476562 C 34.371094 20.507812 32.230469 20.574219 31.820312 19.558594 C 31.425781 18.574219 31.628906 17.871094 31.636719 17.84375 C 31.65625 17.785156 31.691406 17.765625 31.746094 17.785156 C 31.804688 17.800781 31.824219 17.835938 31.808594 17.894531 C 31.808594 17.898438 31.613281 18.570312 31.984375 19.496094 C 32.128906 19.847656 32.535156 20.054688 33.003906 20.167969 L 32.765625 17.679688 C 32.757812 17.617188 32.789062 17.582031 32.851562 17.585938 C 32.652344 17.351562 32.4375 17.132812 32.214844 16.921875 C 32.183594 16.898438 32.175781 16.867188 32.191406 16.832031 L 33.078125 14.195312 C 32.519531 14.265625 30.394531 14.628906 29.761719 16.101562 C 29.070312 17.703125 28.660156 20.476562 30.347656 21.558594 C 31.96875 22.59375 34.398438 22.480469 34.867188 22.445312 Z M 34.867188 22.445312 " fill-opacity="1" fill-rule="nonzero"/><path fill="#ffdcb6" d="M 34.734375 29.171875 C 34.734375 29.226562 34.703125 29.253906 34.648438 29.253906 L 33.09375 29.253906 L 33.046875 30.097656 C 33.390625 30.179688 33.714844 30.304688 34.023438 30.476562 L 35.105469 30.339844 L 35.4375 28.25 L 34.777344 28.25 C 34.753906 28.808594 34.734375 29.160156 34.734375 29.171875 Z M 34.734375 29.171875 " fill-opacity="1" fill-rule="nonzero"/><path fill="#27aae1" d="M 34.015625 30.65625 C 33.996094 30.65625 33.976562 30.652344 33.957031 30.644531 C 33.949219 30.636719 33.253906 30.230469 32.609375 30.230469 C 32.292969 30.230469 31.992188 30.328125 31.785156 30.617188 C 31.539062 30.964844 31.472656 31.238281 31.578125 31.421875 C 31.730469 31.691406 32.261719 31.804688 33.074219 31.75 C 33.613281 31.710938 34.054688 31.714844 34.410156 31.714844 C 34.835938 31.71875 35.203125 31.722656 35.214844 31.625 C 35.265625 31.21875 35.257812 30.71875 35.136719 30.511719 Z M 34.015625 30.65625 " fill-opacity="1" fill-rule="nonzero"/><path fill="#ffffff" d="M 34.867188 22.445312 L 34.859375 20.476562 C 34.371094 20.507812 32.230469 20.574219 31.820312 19.558594 C 31.425781 18.574219 31.628906 17.871094 31.636719 17.84375 C 31.648438 17.800781 31.675781 17.78125 31.722656 17.78125 C 31.808594 17.429688 31.960938 17.113281 32.1875 16.832031 L 33.078125 14.195312 C 32.519531 14.265625 30.394531 14.628906 29.761719 16.101562 C 29.070312 17.703125 28.660156 20.476562 30.347656 21.558594 C 31.96875 22.59375 34.398438 22.480469 34.867188 22.445312 Z M 34.867188 22.445312 " fill-opacity="1" fill-rule="nonzero"/><path fill="#d1d3d4" d="M 34.867188 22.445312 L 34.867188 22.03125 C 28.777344 22.285156 29.210938 18.152344 29.210938 18.152344 C 29.046875 19.480469 29.265625 20.867188 30.347656 21.558594 C 31.96875 22.59375 34.398438 22.480469 34.867188 22.445312 Z M 34.867188 22.445312 " fill-opacity="1" fill-rule="nonzero"/><path fill="#d1d3d4" d="M 33.230469 14.289062 C 33.230469 14.289062 34.503906 17.300781 33.070312 17.570312 L 34.496094 17.539062 C 34.496094 17.539062 33.769531 14.710938 33.230469 14.289062 Z M 33.230469 14.289062 " fill-opacity="1" fill-rule="nonzero"/><path fill="#ffffff" d="M 31.179688 22.160156 L 31.742188 28.65625 L 34.75 28.910156 L 34.5625 29.078125 L 31.386719 29.078125 Z M 31.179688 22.160156 " fill-opacity="1" fill-rule="nonzero"/><path fill="#ffffff" d="M 34.867188 25.132812 C 34.867188 25.132812 35.234375 27.816406 38.195312 27.566406 L 38.132812 28.25 L 34.695312 28.164062 Z M 34.867188 25.132812 " fill-opacity="1" fill-rule="nonzero"/><path fill="#d1d3d4" d="M 38.769531 24.742188 C 38.769531 24.742188 39.675781 26.070312 40.757812 25.40625 Z M 38.769531 24.742188 " fill-opacity="1" fill-rule="nonzero"/><path fill="#d1d3d4" d="M 41.023438 17.789062 L 41.964844 23.773438 L 41.296875 23.773438 Z M 41.023438 17.789062 " fill-opacity="1" fill-rule="nonzero"/><path fill="#d1d3d4" d="M 38.121094 17.023438 C 38.121094 17.023438 38.132812 21.621094 38.964844 21.34375 L 38.113281 24.347656 C 38.113281 24.347656 37.636719 18.933594 38.121094 17.023438 Z M 38.121094 17.023438 " fill-opacity="1" fill-rule="nonzero"/><path fill="#d1d3d4" d="M 41.230469 26.371094 C 41.230469 26.371094 40.808594 28.523438 38.433594 28.824219 L 38.371094 29.144531 L 41.375 29.125 Z M 41.230469 26.371094 " fill-opacity="1" fill-rule="nonzero"/><path fill="#f4c392" d="M 31.445312 9.183594 C 31.445312 9.195312 31.441406 9.207031 31.4375 9.21875 C 31.390625 9.453125 31.394531 9.683594 31.441406 9.914062 C 31.457031 9.96875 31.4375 10.003906 31.378906 10.019531 C 31.371094 10.019531 31.363281 10.019531 31.355469 10.019531 C 31.308594 10.023438 31.28125 10 31.269531 9.957031 C 31.21875 9.703125 31.21875 9.453125 31.265625 9.203125 C 31.0625 8.839844 30.652344 8.597656 30.324219 8.652344 C 30.109375 8.6875 29.929688 8.84375 29.808594 9.09375 C 29.6875 9.351562 29.652344 9.675781 29.707031 10.007812 C 29.761719 10.339844 29.90625 10.632812 30.109375 10.839844 C 30.300781 11.035156 30.527344 11.125 30.738281 11.085938 C 30.855469 11.066406 30.953125 11.019531 31.039062 10.941406 C 31.050781 10.910156 31.074219 10.890625 31.109375 10.886719 C 31.140625 10.878906 31.167969 10.890625 31.191406 10.917969 C 31.210938 10.9375 31.21875 10.964844 31.210938 10.992188 C 31.316406 11.636719 31.554688 12.230469 31.917969 12.769531 C 32.265625 13.289062 32.714844 13.703125 33.261719 14.011719 L 33.273438 14.011719 L 33.28125 14.015625 C 33.285156 14.015625 33.289062 14.019531 33.292969 14.023438 L 33.300781 14.03125 C 33.839844 14.324219 34.464844 14.507812 35.175781 14.578125 C 35.367188 14.597656 35.566406 14.605469 35.769531 14.609375 C 37.183594 14.628906 38.296875 14.226562 39.082031 13.421875 C 39.867188 12.613281 40.171875 11.542969 40.289062 10.78125 C 40.039062 11.609375 39.148438 14.84375 35.179688 13.980469 C 31.210938 13.113281 32.375 8.097656 32.375 8.097656 C 31.765625 8.375 31.527344 8.808594 31.445312 9.183594 Z M 31.445312 9.183594 " fill-opacity="1" fill-rule="nonzero"/><path fill="#ffffff" d="M 37.734375 25.019531 C 37.734375 25.019531 37.539062 26.203125 36.398438 27.25 " fill-opacity="1" fill-rule="nonzero"/><path fill="#d1d3d4" d="M 31.179688 22.160156 C 31.179688 22.160156 31.828125 27.417969 34.566406 29.078125 L 34.664062 25.472656 L 34.105469 23.617188 L 33.324219 23.574219 L 33.230469 22.601562 Z M 31.179688 22.160156 " fill-opacity="1" fill-rule="nonzero"/><path fill="#603913" d="M 30 8.578125 C 30.078125 8.53125 30.167969 8.496094 30.257812 8.480469 C 30.609375 8.421875 31.03125 8.632812 31.289062 8.972656 C 31.414062 8.601562 31.6875 8.203125 32.269531 7.941406 C 33.546875 7.363281 34.015625 7.097656 34.523438 6.515625 C 34.472656 6.4375 34.429688 6.371094 34.398438 6.316406 C 31.757812 8.578125 30.046875 6.972656 30.046875 6.972656 C 29.933594 7.503906 29.917969 8.039062 30 8.578125 Z M 30 8.578125 " fill-opacity="1" fill-rule="nonzero"/><path fill="#603913" d="M 41.179688 9.902344 C 41.191406 9.800781 41.207031 9.695312 41.222656 9.589844 C 41.222656 9.585938 41.222656 9.578125 41.222656 9.574219 C 41.238281 9.46875 41.25 9.359375 41.261719 9.253906 C 41.265625 9.226562 41.269531 9.199219 41.273438 9.171875 C 41.285156 9.066406 41.296875 8.957031 41.308594 8.847656 L 41.289062 8.847656 L 41.40625 8.769531 L 41.367188 7.742188 C 41.367188 8.027344 41.273438 8.839844 40.273438 8.847656 C 36.113281 8.648438 34.476562 6.097656 34.476562 6.097656 C 34.488281 6.113281 35.351562 7.902344 37.734375 8.621094 C 38.867188 8.960938 39.515625 9.183594 39.929688 9.371094 C 40.414062 9.59375 40.574219 9.765625 40.808594 10.011719 L 40.8125 10.019531 C 40.855469 10.0625 40.851562 10.105469 40.808594 10.144531 C 40.765625 10.183594 40.722656 10.183594 40.683594 10.140625 L 40.675781 10.132812 C 40.613281 10.066406 40.558594 10.007812 40.5 9.949219 C 40.5 9.964844 40.5 9.984375 40.5 10 C 40.5 10.128906 40.492188 10.3125 40.46875 10.535156 C 40.386719 11.324219 40.101562 12.585938 39.175781 13.542969 C 39.039062 13.679688 38.894531 13.804688 38.738281 13.921875 C 39.160156 13.988281 40.097656 14.171875 40.933594 14.59375 C 40.597656 13.621094 40.816406 12.234375 41.046875 10.769531 C 41.070312 10.613281 41.09375 10.460938 41.117188 10.304688 L 41.117188 10.300781 C 41.132812 10.195312 41.148438 10.089844 41.164062 9.984375 Z M 41.179688 9.902344 " fill-opacity="1" fill-rule="nonzero"/><path fill="#603913" d="M 34.496094 6.546875 L 34.527344 6.515625 C 34.515625 6.5 34.503906 6.484375 34.496094 6.46875 Z M 34.496094 6.546875 " fill-opacity="1" fill-rule="nonzero"/><path fill="#603913" d="M 41.363281 7.644531 L 41.367188 7.742188 C 41.367188 7.683594 41.363281 7.644531 41.363281 7.644531 Z M 41.363281 7.644531 " fill-opacity="1" fill-rule="nonzero"/><path fill="#a97c50" d="M 32.394531 4.59375 C 32.394531 4.59375 39.28125 1.703125 41.363281 7.644531 C 41.363281 7.644531 42.03125 4.597656 38 3.390625 C 38 3.390625 34.488281 2.546875 32.394531 4.59375 Z M 32.394531 4.59375 " fill-opacity="1" fill-rule="nonzero"/><path fill="#78dcff" d="M 36.40625 15.667969 L 37.140625 16.855469 L 38.027344 16.019531 L 38 16.261719 L 36.984375 17.511719 L 36.070312 16.019531 Z M 36.40625 15.667969 " fill-opacity="1" fill-rule="nonzero"/><path fill="#78dcff" d="M 35.683594 15.621094 L 35.125 16.847656 L 34.132812 16.019531 L 35.25 17.371094 L 35.96875 16.027344 Z M 35.683594 15.621094 " fill-opacity="1" fill-rule="nonzero"/><path fill="#007eaa" d="M 37.039062 14.710938 C 37.039062 14.710938 38.042969 14.65625 38.054688 16.117188 L 38.367188 14.171875 Z M 37.039062 14.710938 " fill-opacity="1" fill-rule="nonzero"/><path fill="#007eaa" d="M 35.074219 14.746094 C 35.074219 14.746094 33.996094 14.578125 34.132812 16.019531 L 33.34375 14.289062 Z M 35.074219 14.746094 " fill-opacity="1" fill-rule="nonzero"/><path fill="#007eaa" d="M 37.882812 19.085938 C 37.84375 19.558594 37.71875 20.308594 37.316406 20.757812 L 37.328125 20.929688 C 37.40625 21.035156 37.429688 21.179688 37.398438 21.351562 C 37.386719 21.402344 37.378906 21.453125 37.367188 21.503906 C 37.367188 21.511719 37.371094 21.515625 37.371094 21.523438 L 37.496094 23.34375 C 37.496094 23.371094 37.488281 23.390625 37.472656 23.410156 C 37.457031 23.429688 37.4375 23.4375 37.410156 23.4375 L 34.902344 23.574219 C 34.902344 23.75 34.902344 23.929688 34.898438 24.109375 L 37.925781 24.109375 C 37.875 22.519531 37.84375 20.75 37.882812 19.085938 Z M 37.882812 19.085938 " fill-opacity="1" fill-rule="nonzero"/><path fill="#007eaa" d="M 35.375 17.511719 C 35.375 17.511719 36.039062 16.25 36.855469 17.46875 L 36.113281 16.117188 L 35.769531 16.398438 Z M 35.375 17.511719 " fill-opacity="1" fill-rule="nonzero"/><path fill="#eacbac" d="M 32.949219 17.757812 L 36.648438 18.019531 L 37.09375 20.097656 L 36.929688 17.644531 Z M 32.949219 17.757812 " fill-opacity="1" fill-rule="nonzero"/><path fill="#a97c50" d="M 33.316406 17.746094 L 33.628906 20.253906 L 33.089844 20.164062 L 32.851562 17.789062 Z M 33.316406 17.746094 " fill-opacity="1" fill-rule="nonzero"/><path fill="#ffdcb6" d="M 31.003906 10.941406 C 29.914062 9.898438 31.085938 9.699219 31.085938 9.699219 L 31.238281 9.707031 C 31.226562 9.539062 31.234375 9.371094 31.265625 9.203125 C 31.0625 8.839844 30.652344 8.597656 30.324219 8.652344 C 30.109375 8.6875 29.929688 8.84375 29.808594 9.09375 C 29.6875 9.351562 29.652344 9.675781 29.707031 10.007812 C 29.761719 10.339844 29.90625 10.632812 30.109375 10.839844 C 30.300781 11.035156 30.527344 11.125 30.738281 11.085938 C 30.84375 11.070312 30.9375 11.023438 31.019531 10.957031 Z M 31.003906 10.941406 " fill-opacity="1" fill-rule="nonzero"/><path fill="#ffdcb6" d="M 31.242188 11.171875 C 31.246094 11.183594 31.25 11.191406 31.25 11.203125 C 31.457031 11.394531 31.667969 11.585938 31.242188 11.171875 Z M 31.242188 11.171875 " fill-opacity="1" fill-rule="nonzero"/><path fill="#f4c392" d="M 34.648438 29.253906 L 34.511719 30.476562 L 35.105469 30.339844 L 35.4375 28.25 L 34.777344 28.25 Z M 34.648438 29.253906 " fill-opacity="1" fill-rule="nonzero"/><path fill="#f4c392" d="M 37.902344 28.246094 L 38.195312 30.476562 L 37.410156 30.339844 L 37.167969 28.25 Z M 37.902344 28.246094 " fill-opacity="1" fill-rule="nonzero"/><path fill="#f4c392" d="M 38.289062 29.320312 L 37.957031 29.328125 L 37.902344 28.246094 L 38.195312 28.164062 Z M 38.289062 29.320312 " fill-opacity="1" fill-rule="nonzero"/><path fill="#007eaa" d="M 38.554688 30.644531 C 38.554688 30.644531 38.5 32.003906 40.933594 31.421875 C 40.933594 31.421875 41.105469 31.746094 39.234375 31.824219 C 37.367188 31.902344 37.207031 31.632812 37.207031 31.632812 L 37.328125 30.417969 Z M 38.554688 30.644531 " fill-opacity="1" fill-rule="nonzero"/><path fill="#78dcff" d="M 39.941406 30.296875 C 40.097656 30.320312 40.226562 30.359375 40.328125 30.414062 C 40.433594 30.472656 40.480469 30.53125 40.472656 30.589844 C 40.464844 30.648438 40.402344 30.691406 40.285156 30.71875 C 40.171875 30.746094 40.035156 30.746094 39.882812 30.726562 C 39.726562 30.703125 39.597656 30.664062 39.496094 30.605469 C 39.390625 30.550781 39.34375 30.492188 39.351562 30.433594 C 39.359375 30.375 39.421875 30.332031 39.539062 30.304688 C 39.652344 30.277344 39.789062 30.277344 39.941406 30.296875 Z M 39.941406 30.296875 " fill-opacity="1" fill-rule="nonzero"/><path fill="#78dcff" d="M 38.886719 30.476562 C 38.886719 30.476562 40.59375 30.113281 40.9375 31.246094 C 40.9375 31.246094 40.875 29.621094 38.886719 30.476562 Z M 38.886719 30.476562 " fill-opacity="1" fill-rule="nonzero"/><path fill="#007eaa" d="M 33.90625 30.644531 C 33.90625 30.644531 33.960938 32.003906 31.527344 31.421875 C 31.527344 31.421875 31.355469 31.746094 33.222656 31.824219 C 35.09375 31.902344 35.253906 31.632812 35.253906 31.632812 L 35.128906 30.417969 Z M 33.90625 30.644531 " fill-opacity="1" fill-rule="nonzero"/><path fill="#78dcff" d="M 33.109375 30.429688 C 33.117188 30.488281 33.070312 30.546875 32.96875 30.605469 C 32.863281 30.660156 32.734375 30.699219 32.582031 30.722656 C 32.425781 30.742188 32.292969 30.742188 32.175781 30.714844 C 32.0625 30.6875 32 30.644531 31.992188 30.585938 C 31.980469 30.527344 32.03125 30.46875 32.132812 30.414062 C 32.234375 30.355469 32.363281 30.316406 32.519531 30.292969 C 32.675781 30.273438 32.808594 30.277344 32.925781 30.300781 C 33.039062 30.328125 33.101562 30.371094 33.109375 30.429688 Z M 33.109375 30.429688 " fill-opacity="1" fill-rule="nonzero"/><path fill="#78dcff" d="M 33.574219 30.476562 C 33.574219 30.476562 31.867188 30.113281 31.523438 31.246094 C 31.523438 31.246094 31.582031 29.621094 33.574219 30.476562 Z M 33.574219 30.476562 " fill-opacity="1" fill-rule="nonzero"/><path fill="#f4c392" d="M 40.132812 11.339844 C 40.128906 11.367188 40.125 11.390625 40.121094 11.417969 C 40.261719 10.890625 40.328125 10.351562 40.320312 9.808594 C 40.320312 9.804688 40.320312 9.800781 40.320312 9.796875 C 39.980469 9.542969 39.398438 9.304688 37.683594 8.785156 C 36.019531 8.285156 35.070312 7.273438 34.628906 6.664062 C 34.628906 6.664062 35.875 8.683594 39.117188 9.804688 C 39.769531 10.03125 40.203125 10.664062 40.132812 11.339844 Z M 40.132812 11.339844 " fill-opacity="1" fill-rule="nonzero"/><path fill="#f4c392" d="M 35.472656 20.808594 C 35.472656 20.808594 35.472656 22.414062 37.039062 22.03125 C 37.039062 22.03125 37.085938 22.574219 36.226562 22.421875 C 35.367188 22.265625 35.382812 22.179688 35.382812 22.179688 Z M 35.472656 20.808594 " fill-opacity="1" fill-rule="nonzero"/><path fill="#f4c392" d="M 42.230469 24.285156 C 42.230469 24.285156 42.390625 25.417969 41.382812 25.621094 L 41.324219 24.386719 Z M 42.230469 24.285156 " fill-opacity="1" fill-rule="nonzero"/><path fill="#d1d3d4" d="M 42.421875 24.132812 L 42.421875 23.863281 L 41.304688 23.941406 L 41.316406 24.210938 Z M 42.421875 24.132812 " fill-opacity="1" fill-rule="nonzero"/><path fill="#d1d3d4" d="M 35.046875 21.113281 L 35.332031 21.113281 L 35.332031 22.089844 L 35.042969 22.089844 Z M 35.046875 21.113281 " fill-opacity="1" fill-rule="nonzero"/><path fill="#fff2e6" d="M 31.148438 9.40625 C 31.148438 9.40625 30.160156 8.070312 29.6875 9.871094 C 29.6875 9.871094 29.484375 8.910156 30.144531 8.605469 C 30.808594 8.296875 31.265625 9.027344 31.230469 9.203125 C 31.195312 9.382812 31.148438 9.40625 31.148438 9.40625 Z M 31.148438 9.40625 " fill-opacity="1" fill-rule="nonzero"/><g clip-path="url(#44100e8515)"><path fill="#232323" d="M 42.296875 15.703125 C 42.054688 15.277344 41.664062 14.945312 41.222656 14.6875 C 40.8125 13.773438 41.039062 12.328125 41.28125 10.804688 C 41.6875 8.203125 42.152344 5.253906 39.628906 3.894531 C 37.503906 2.742188 35.621094 2.941406 34.410156 3.308594 C 33.214844 3.675781 32.449219 4.257812 32.300781 4.378906 C 30.605469 4.871094 30.011719 6.035156 29.8125 6.929688 C 29.6875 7.507812 29.675781 8.09375 29.777344 8.679688 C 29.6875 8.773438 29.613281 8.878906 29.558594 8.996094 C 29.417969 9.296875 29.371094 9.667969 29.4375 10.046875 C 29.5 10.425781 29.667969 10.761719 29.902344 11.003906 C 30.015625 11.121094 30.148438 11.210938 30.300781 11.273438 C 30.355469 11.609375 30.589844 13.230469 30.519531 14.851562 C 30.109375 15.140625 29.753906 15.515625 29.542969 16.011719 C 29.140625 16.953125 28.90625 18.074219 28.921875 19.019531 C 28.945312 20.28125 29.394531 21.226562 30.21875 21.753906 C 30.449219 21.898438 30.691406 22.023438 30.941406 22.128906 L 31.152344 29.167969 C 31.15625 29.261719 31.203125 29.3125 31.300781 29.3125 L 32.855469 29.3125 L 32.816406 30.003906 C 32.367188 29.953125 31.902344 30.046875 31.59375 30.484375 C 31.292969 30.914062 31.21875 31.265625 31.375 31.539062 C 31.550781 31.84375 31.992188 31.996094 32.6875 31.996094 C 32.816406 31.996094 32.949219 31.992188 33.09375 31.980469 C 33.625 31.945312 34.0625 31.945312 34.410156 31.949219 C 35.058594 31.953125 35.417969 31.957031 35.453125 31.648438 C 35.480469 31.429688 35.542969 30.71875 35.339844 30.382812 L 35.667969 28.308594 L 36.9375 28.308594 L 37.179688 30.378906 C 36.972656 30.714844 37.035156 31.429688 37.0625 31.648438 C 37.097656 31.957031 37.457031 31.953125 38.101562 31.949219 C 38.453125 31.945312 38.890625 31.945312 39.421875 31.980469 C 39.566406 31.992188 39.699219 31.996094 39.828125 31.996094 C 40.523438 31.996094 40.964844 31.84375 41.140625 31.539062 C 41.296875 31.265625 41.222656 30.914062 40.921875 30.484375 C 40.613281 30.042969 40.144531 29.953125 39.699219 30.003906 L 39.65625 29.371094 L 41.472656 29.359375 C 41.574219 29.359375 41.625 29.304688 41.617188 29.203125 C 41.5625 28.078125 41.507812 26.945312 41.457031 25.855469 C 41.5 25.859375 41.542969 25.859375 41.582031 25.859375 C 42.015625 25.859375 42.347656 25.738281 42.566406 25.488281 C 42.890625 25.121094 42.863281 24.585938 42.824219 24.324219 C 42.878906 24.296875 42.902344 24.253906 42.902344 24.195312 L 42.902344 23.90625 L 43.140625 23.894531 C 43.230469 23.890625 43.277344 23.84375 43.277344 23.753906 C 43.441406 19.660156 43.140625 17.175781 42.296875 15.703125 Z M 30.101562 6.992188 C 30.371094 5.796875 31.144531 5.007812 32.414062 4.648438 C 32.433594 4.644531 32.453125 4.632812 32.46875 4.621094 C 32.476562 4.613281 33.257812 3.964844 34.511719 3.582031 C 36.183594 3.078125 37.859375 3.265625 39.488281 4.144531 C 41.828125 5.410156 41.382812 8.25 40.988281 10.757812 C 40.769531 12.164062 40.558594 13.503906 40.839844 14.480469 C 40.109375 14.132812 39.328125 13.960938 38.886719 13.882812 C 39.003906 13.789062 39.113281 13.6875 39.21875 13.578125 C 40.367188 12.402344 40.539062 10.753906 40.558594 10.085938 C 40.585938 10.113281 40.609375 10.140625 40.636719 10.167969 L 40.644531 10.175781 C 40.710938 10.25 40.78125 10.25 40.851562 10.183594 C 40.925781 10.117188 40.925781 10.050781 40.859375 9.976562 L 40.851562 9.972656 C 40.414062 9.5 40.230469 9.308594 37.753906 8.5625 C 35.398438 7.851562 34.542969 6.085938 34.535156 6.070312 C 34.496094 5.980469 34.429688 5.957031 34.339844 5.996094 C 34.25 6.039062 34.226562 6.101562 34.269531 6.191406 C 34.324219 6.300781 34.382812 6.410156 34.453125 6.511719 C 33.960938 7.058594 33.488281 7.324219 32.246094 7.886719 C 31.699219 8.132812 31.414062 8.5 31.273438 8.855469 C 31 8.542969 30.601562 8.367188 30.253906 8.425781 C 30.179688 8.4375 30.113281 8.457031 30.046875 8.488281 C 29.980469 7.988281 29.996094 7.488281 30.101562 6.992188 Z M 38.738281 19.617188 C 38.726562 19.714844 38.765625 19.769531 38.863281 19.785156 C 38.871094 19.785156 38.878906 19.785156 38.886719 19.785156 C 38.96875 19.785156 39.019531 19.742188 39.03125 19.660156 C 39.078125 19.355469 39.148438 19.054688 39.246094 18.761719 L 39.660156 19.832031 C 39.410156 20.09375 38.636719 21.097656 38.152344 23.753906 C 38.050781 20.476562 38.066406 16.535156 38.5625 14.363281 L 40.082031 16.980469 C 39.773438 17.199219 39.007812 17.898438 38.738281 19.617188 Z M 36.785156 28.015625 L 36.617188 25.839844 C 36.613281 25.742188 36.5625 25.695312 36.460938 25.703125 C 36.359375 25.710938 36.316406 25.761719 36.324219 25.863281 L 36.488281 28.015625 L 36.078125 28.015625 L 36.171875 26.582031 C 36.183594 26.480469 36.136719 26.429688 36.035156 26.421875 C 35.929688 26.414062 35.878906 26.460938 35.875 26.5625 L 35.785156 28.015625 L 34.847656 28.015625 C 34.886719 27.070312 34.9375 25.671875 34.957031 24.34375 L 37.871094 24.34375 C 37.925781 25.820312 38 27.125 38.054688 28.015625 Z M 37.859375 24.050781 L 34.957031 24.050781 C 34.957031 23.910156 34.960938 23.769531 34.960938 23.628906 L 37.414062 23.496094 C 37.457031 23.496094 37.488281 23.476562 37.515625 23.449219 C 37.542969 23.417969 37.554688 23.382812 37.554688 23.34375 L 37.429688 21.519531 C 37.429688 21.515625 37.429688 21.511719 37.425781 21.507812 C 37.4375 21.457031 37.445312 21.410156 37.457031 21.363281 C 37.496094 21.152344 37.449219 21.003906 37.386719 20.910156 L 37.160156 17.601562 L 37.945312 16.597656 C 37.753906 18.835938 37.777344 21.648438 37.859375 24.050781 Z M 35.53125 20.847656 C 35.75 20.746094 36.125 20.617188 36.285156 20.703125 C 36.316406 20.71875 36.351562 20.746094 36.363281 20.832031 C 36.367188 20.871094 36.386719 20.90625 36.421875 20.929688 C 36.457031 20.957031 36.492188 20.964844 36.535156 20.957031 C 36.644531 20.933594 36.980469 20.90625 37.113281 21.035156 C 37.117188 21.039062 37.121094 21.042969 37.125 21.046875 C 37.152344 21.078125 37.195312 21.144531 37.164062 21.308594 C 37.007812 22.136719 36.777344 22.300781 36.457031 22.292969 C 36.09375 22.285156 35.699219 22.148438 35.53125 22.082031 Z M 34.542969 17.476562 C 34.5 17.21875 34.449219 16.96875 34.398438 16.730469 L 35.019531 17.464844 Z M 36.078125 16.316406 L 36.753906 17.414062 L 35.472656 17.453125 Z M 37.996094 16.078125 C 37.980469 16.085938 37.964844 16.101562 37.953125 16.117188 L 37.027344 17.296875 L 36.246094 16.023438 L 37.089844 14.738281 C 37.09375 14.730469 37.101562 14.722656 37.101562 14.714844 C 37.515625 14.625 37.90625 14.484375 38.277344 14.289062 C 38.148438 14.878906 38.054688 15.476562 37.996094 16.078125 Z M 36.066406 15.757812 L 35.421875 14.832031 C 35.523438 14.835938 35.625 14.84375 35.734375 14.84375 L 35.824219 14.84375 C 36.121094 14.84375 36.417969 14.824219 36.710938 14.785156 Z M 35.042969 14.800781 L 35.898438 16.03125 L 35.238281 17.265625 L 34.25 16.097656 C 34.246094 16.09375 34.246094 16.09375 34.242188 16.089844 C 34.0625 15.433594 33.847656 14.882812 33.601562 14.441406 C 34.066406 14.628906 34.546875 14.746094 35.042969 14.800781 Z M 33.25 14.421875 C 33.675781 15.109375 34.011719 16.136719 34.25 17.484375 L 33.101562 17.519531 C 32.894531 17.273438 32.671875 17.039062 32.4375 16.816406 Z M 33.015625 17.8125 L 36.875 17.703125 L 37.078125 20.6875 C 36.925781 20.648438 36.773438 20.632812 36.617188 20.648438 C 36.578125 20.558594 36.515625 20.488281 36.425781 20.441406 C 36.089844 20.269531 35.507812 20.53125 35.351562 20.609375 L 35.09375 20.609375 L 35.09375 20.378906 C 35.09375 20.277344 35.042969 20.226562 34.933594 20.234375 C 34.566406 20.265625 33.863281 20.273438 33.238281 20.15625 C 33.238281 20.152344 33.238281 20.148438 33.238281 20.148438 Z M 35.097656 20.902344 L 35.238281 20.902344 L 35.238281 22.035156 L 35.105469 22.035156 Z M 34.972656 22.671875 C 35.0625 22.664062 35.105469 22.613281 35.105469 22.527344 L 35.105469 22.324219 L 35.355469 22.324219 C 35.484375 22.378906 35.976562 22.574219 36.457031 22.585938 L 36.476562 22.585938 C 36.8125 22.585938 37.03125 22.425781 37.175781 22.1875 L 37.246094 23.214844 L 33.546875 23.414062 L 33.476562 22.679688 C 33.738281 22.699219 33.976562 22.703125 34.183594 22.703125 C 34.632812 22.703125 34.933594 22.675781 34.972656 22.671875 Z M 34.671875 23.644531 C 34.671875 23.816406 34.667969 23.988281 34.667969 24.164062 C 34.664062 24.171875 34.664062 24.183594 34.660156 24.195312 C 34.660156 24.207031 34.664062 24.21875 34.664062 24.226562 C 34.664062 24.304688 34.664062 24.378906 34.664062 24.453125 C 34.585938 24.183594 34.496094 23.917969 34.386719 23.660156 Z M 29.730469 10 C 29.675781 9.679688 29.710938 9.367188 29.828125 9.121094 C 29.9375 8.890625 30.105469 8.746094 30.300781 8.710938 C 30.59375 8.664062 30.976562 8.886719 31.167969 9.214844 C 31.125 9.46875 31.128906 9.71875 31.179688 9.972656 C 31.207031 10.0625 31.265625 10.09375 31.359375 10.070312 C 31.449219 10.046875 31.484375 9.992188 31.464844 9.898438 C 31.417969 9.679688 31.414062 9.460938 31.457031 9.242188 C 31.464844 9.222656 31.46875 9.203125 31.46875 9.1875 C 31.550781 8.828125 31.785156 8.414062 32.367188 8.152344 C 33.59375 7.597656 34.117188 7.308594 34.621094 6.761719 C 35.210938 7.546875 35.957031 8.140625 36.859375 8.539062 C 36.835938 8.578125 36.816406 8.621094 36.800781 8.664062 C 36.78125 8.71875 36.84375 8.789062 36.898438 8.765625 C 36.980469 8.730469 37.066406 8.695312 37.160156 8.667969 C 37.320312 8.730469 37.488281 8.789062 37.667969 8.84375 C 39.335938 9.34375 39.925781 9.585938 40.265625 9.828125 C 40.269531 10.03125 40.292969 12.058594 39.003906 13.378906 C 38.230469 14.175781 37.128906 14.566406 35.738281 14.550781 C 34.789062 14.539062 33.976562 14.351562 33.300781 13.980469 C 33.292969 13.976562 33.289062 13.972656 33.28125 13.96875 L 33.277344 13.964844 C 33.269531 13.960938 33.261719 13.957031 33.253906 13.957031 L 33.25 13.957031 C 32.714844 13.65625 32.277344 13.253906 31.9375 12.746094 C 31.578125 12.214844 31.34375 11.632812 31.238281 11.003906 C 31.246094 10.957031 31.230469 10.914062 31.199219 10.882812 L 31.195312 10.875 C 31.160156 10.839844 31.117188 10.824219 31.066406 10.832031 C 31.015625 10.839844 30.980469 10.863281 30.957031 10.910156 C 30.878906 10.976562 30.792969 11.015625 30.695312 11.035156 C 30.5 11.066406 30.292969 10.984375 30.117188 10.800781 C 29.921875 10.601562 29.785156 10.320312 29.730469 10 Z M 30.609375 11.328125 C 30.65625 11.328125 30.699219 11.328125 30.742188 11.320312 C 30.824219 11.304688 30.902344 11.277344 30.980469 11.238281 C 31.105469 11.835938 31.339844 12.390625 31.683594 12.898438 C 31.980469 13.332031 32.34375 13.703125 32.78125 14 C 32.3125 14.078125 31.527344 14.257812 30.820312 14.660156 C 30.863281 13.210938 30.679688 11.804688 30.609375 11.328125 Z M 29.816406 16.125 C 30.40625 14.753906 32.328125 14.359375 32.992188 14.265625 L 32.128906 16.8125 C 32.109375 16.871094 32.125 16.921875 32.167969 16.964844 C 32.171875 16.96875 32.453125 17.226562 32.753906 17.5625 C 32.75 17.566406 32.746094 17.570312 32.742188 17.574219 C 32.714844 17.605469 32.703125 17.644531 32.707031 17.683594 L 32.933594 20.089844 C 32.511719 19.972656 32.160156 19.78125 32.039062 19.476562 C 31.675781 18.570312 31.859375 17.917969 31.863281 17.910156 C 31.894531 17.816406 31.863281 17.75 31.765625 17.722656 C 31.667969 17.695312 31.605469 17.730469 31.578125 17.828125 C 31.570312 17.859375 31.359375 18.578125 31.765625 19.582031 C 32.171875 20.59375 34.203125 20.570312 34.796875 20.539062 L 34.808594 22.390625 C 34.320312 22.421875 32.601562 22.476562 31.144531 21.898438 L 31.136719 21.894531 C 30.871094 21.789062 30.621094 21.660156 30.378906 21.511719 C 28.722656 20.449219 29.132812 17.707031 29.816406 16.125 Z M 31.238281 22.246094 C 31.894531 22.480469 32.578125 22.601562 33.179688 22.65625 L 33.265625 23.578125 C 33.273438 23.667969 33.324219 23.710938 33.414062 23.710938 L 33.421875 23.710938 L 34.066406 23.675781 C 34.140625 23.835938 34.386719 24.40625 34.601562 25.484375 C 34.605469 25.507812 34.617188 25.53125 34.636719 25.550781 C 34.59375 27.125 34.527344 28.574219 34.503906 29.019531 L 31.441406 29.019531 Z M 35.160156 31.613281 C 35.089844 31.664062 34.730469 31.660156 34.414062 31.660156 C 34.058594 31.65625 33.613281 31.652344 33.070312 31.691406 C 32.296875 31.746094 31.769531 31.636719 31.632812 31.394531 C 31.511719 31.1875 31.675781 30.878906 31.835938 30.652344 C 32.027344 30.378906 32.3125 30.289062 32.609375 30.289062 C 33.234375 30.289062 33.917969 30.6875 33.929688 30.695312 C 33.957031 30.710938 33.988281 30.71875 34.023438 30.714844 L 35.109375 30.574219 C 35.199219 30.777344 35.203125 31.226562 35.160156 31.613281 Z M 35.054688 30.289062 L 34.035156 30.417969 C 33.742188 30.253906 33.433594 30.132812 33.109375 30.054688 L 33.152344 29.3125 L 34.648438 29.3125 C 34.742188 29.3125 34.789062 29.265625 34.796875 29.171875 C 34.796875 29.164062 34.8125 28.832031 34.835938 28.308594 L 35.371094 28.308594 Z M 40.675781 30.652344 C 40.835938 30.878906 41 31.1875 40.882812 31.394531 C 40.742188 31.636719 40.21875 31.746094 39.441406 31.691406 C 39.046875 31.664062 38.703125 31.65625 38.40625 31.65625 C 38.296875 31.65625 38.195312 31.65625 38.097656 31.65625 C 37.78125 31.660156 37.421875 31.664062 37.351562 31.609375 C 37.308594 31.226562 37.3125 30.777344 37.40625 30.574219 L 38.492188 30.710938 C 38.523438 30.714844 38.554688 30.710938 38.585938 30.691406 C 38.601562 30.683594 40.089844 29.8125 40.675781 30.652344 Z M 39.402344 30.054688 C 39.078125 30.132812 38.769531 30.253906 38.476562 30.417969 L 37.464844 30.289062 L 37.234375 28.308594 L 38.074219 28.308594 C 38.109375 28.835938 38.136719 29.171875 38.140625 29.242188 C 38.148438 29.332031 38.199219 29.378906 38.289062 29.378906 L 39.351562 29.371094 Z M 42.335938 25.296875 C 42.15625 25.503906 41.855469 25.59375 41.4375 25.566406 C 41.421875 25.183594 41.402344 24.808594 41.386719 24.441406 L 42.527344 24.359375 C 42.558594 24.570312 42.589844 25.015625 42.335938 25.296875 Z M 42.605469 24.058594 L 41.371094 24.148438 C 41.371094 24.097656 41.367188 24.050781 41.363281 24 L 42.605469 23.925781 Z M 42.984375 23.613281 L 41.351562 23.710938 C 41.195312 20.355469 41.085938 17.824219 41.082031 17.785156 C 41.082031 17.6875 41.03125 17.636719 40.929688 17.644531 C 40.828125 17.648438 40.78125 17.699219 40.789062 17.800781 C 40.792969 17.855469 41.035156 23.46875 41.308594 29.070312 L 38.425781 29.089844 C 38.390625 28.644531 38.285156 27.148438 38.203125 25.234375 C 38.226562 25.210938 38.238281 25.183594 38.242188 25.152344 C 38.71875 21.054688 39.914062 19.992188 39.925781 19.984375 C 39.980469 19.941406 39.992188 19.886719 39.96875 19.820312 L 39.402344 18.359375 C 39.808594 17.445312 40.339844 17.167969 40.347656 17.164062 C 40.441406 17.117188 40.464844 17.050781 40.410156 16.960938 L 38.789062 14.171875 C 39.519531 14.296875 41.394531 14.722656 42.039062 15.851562 C 42.835938 17.234375 43.136719 19.703125 42.984375 23.613281 Z M 42.984375 23.613281 " fill-opacity="1" fill-rule="nonzero"/></g><path fill="#232323" d="M 38.628906 24.574219 C 38.597656 24.667969 38.628906 24.730469 38.722656 24.761719 L 40.710938 25.425781 C 40.722656 25.433594 40.738281 25.433594 40.757812 25.433594 C 40.839844 25.433594 40.886719 25.394531 40.902344 25.3125 C 40.914062 25.230469 40.882812 25.175781 40.804688 25.152344 L 38.816406 24.484375 C 38.722656 24.449219 38.660156 24.480469 38.628906 24.574219 Z M 38.628906 24.574219 " fill-opacity="1" fill-rule="nonzero"/><path fill="#232323" d="M 33.777344 24.484375 L 31.792969 25.152344 C 31.710938 25.175781 31.679688 25.230469 31.691406 25.3125 C 31.707031 25.394531 31.753906 25.433594 31.839844 25.433594 C 31.855469 25.433594 31.871094 25.433594 31.886719 25.425781 L 33.875 24.761719 C 33.964844 24.730469 33.996094 24.667969 33.964844 24.574219 C 33.933594 24.484375 33.871094 24.453125 33.777344 24.484375 Z M 33.777344 24.484375 " fill-opacity="1" fill-rule="nonzero"/><path fill="#232323" d="M 34.828125 10.554688 C 34.828125 10.855469 34.777344 11.113281 34.675781 11.328125 C 34.574219 11.539062 34.453125 11.644531 34.308594 11.644531 C 34.167969 11.644531 34.042969 11.539062 33.941406 11.328125 C 33.839844 11.113281 33.789062 10.855469 33.789062 10.554688 C 33.789062 10.253906 33.839844 9.996094 33.941406 9.78125 C 34.042969 9.570312 34.167969 9.464844 34.308594 9.464844 C 34.453125 9.464844 34.574219 9.570312 34.675781 9.78125 C 34.777344 9.996094 34.828125 10.253906 34.828125 10.554688 Z M 34.828125 10.554688 " fill-opacity="1" fill-rule="nonzero"/><path fill="#232323" d="M 38 10.554688 C 38 10.855469 37.949219 11.113281 37.851562 11.328125 C 37.75 11.539062 37.625 11.644531 37.480469 11.644531 C 37.339844 11.644531 37.214844 11.539062 37.113281 11.328125 C 37.011719 11.113281 36.960938 10.855469 36.960938 10.554688 C 36.960938 10.253906 37.011719 9.996094 37.113281 9.78125 C 37.214844 9.570312 37.339844 9.464844 37.480469 9.464844 C 37.625 9.464844 37.75 9.570312 37.851562 9.78125 C 37.949219 9.996094 38 10.253906 38 10.554688 Z M 38 10.554688 " fill-opacity="1" fill-rule="nonzero"/><path fill="#232323" d="M 33.566406 8.761719 C 33.757812 8.683594 33.964844 8.601562 34.175781 8.605469 C 34.371094 8.605469 34.589844 8.691406 34.769531 8.765625 C 34.824219 8.789062 34.890625 8.71875 34.871094 8.664062 C 34.644531 8.050781 33.816406 8.257812 33.5 8.671875 C 33.484375 8.695312 33.488281 8.71875 33.503906 8.742188 C 33.519531 8.761719 33.539062 8.769531 33.566406 8.761719 Z M 33.566406 8.761719 " fill-opacity="1" fill-rule="nonzero"/><path fill="#232323" d="M 34.832031 12.226562 C 34.839844 12.234375 35.363281 12.691406 36.019531 12.691406 C 36.351562 12.691406 36.71875 12.574219 37.066406 12.21875 C 37.140625 12.152344 37.140625 12.082031 37.070312 12.011719 C 36.996094 11.941406 36.925781 11.941406 36.855469 12.015625 C 36.015625 12.867188 35.070312 12.046875 35.027344 12.011719 C 34.957031 11.957031 34.890625 11.960938 34.832031 12.027344 C 34.769531 12.09375 34.769531 12.160156 34.832031 12.226562 Z M 34.832031 12.226562 " fill-opacity="1" fill-rule="nonzero"/><path fill="#232323" d="M 30.628906 9.882812 C 30.691406 9.8125 30.773438 9.8125 30.855469 9.847656 C 30.859375 9.851562 30.863281 9.851562 30.867188 9.851562 C 30.867188 9.851562 30.867188 9.855469 30.867188 9.855469 C 30.933594 10.121094 30.84375 10.386719 30.769531 10.640625 C 30.761719 10.65625 30.769531 10.667969 30.785156 10.675781 C 30.796875 10.683594 30.8125 10.683594 30.824219 10.671875 C 31.117188 10.398438 31.160156 9.953125 30.972656 9.601562 C 30.847656 9.375 30.515625 9.078125 30.261719 9.296875 C 30.242188 9.3125 30.261719 9.339844 30.28125 9.34375 C 30.527344 9.371094 30.703125 9.484375 30.804688 9.679688 C 30.726562 9.667969 30.65625 9.6875 30.597656 9.742188 C 30.46875 9.847656 30.4375 9.976562 30.503906 10.125 C 30.511719 10.144531 30.546875 10.144531 30.546875 10.121094 C 30.539062 10.027344 30.566406 9.949219 30.628906 9.882812 Z M 30.628906 9.882812 " fill-opacity="1" fill-rule="nonzero"/><path fill="#ffffff" d="M 37.796875 10.113281 C 37.796875 10.199219 37.777344 10.269531 37.734375 10.332031 C 37.6875 10.390625 37.636719 10.421875 37.574219 10.421875 C 37.511719 10.421875 37.460938 10.390625 37.417969 10.332031 C 37.371094 10.269531 37.351562 10.199219 37.351562 10.113281 C 37.351562 10.027344 37.371094 9.953125 37.417969 9.894531 C 37.460938 9.832031 37.511719 9.804688 37.574219 9.804688 C 37.636719 9.804688 37.6875 9.832031 37.734375 9.894531 C 37.777344 9.953125 37.796875 10.027344 37.796875 10.113281 Z M 37.796875 10.113281 " fill-opacity="1" fill-rule="nonzero"/><path fill="#ffffff" d="M 34.726562 10.113281 C 34.726562 10.199219 34.703125 10.269531 34.660156 10.332031 C 34.617188 10.390625 34.5625 10.421875 34.503906 10.421875 C 34.441406 10.421875 34.386719 10.390625 34.34375 10.332031 C 34.300781 10.269531 34.277344 10.199219 34.277344 10.113281 C 34.277344 10.027344 34.300781 9.953125 34.34375 9.894531 C 34.386719 9.832031 34.441406 9.804688 34.503906 9.804688 C 34.5625 9.804688 34.617188 9.832031 34.660156 9.894531 C 34.703125 9.953125 34.726562 10.027344 34.726562 10.113281 Z M 34.726562 10.113281 " fill-opacity="1" fill-rule="nonzero"/><path fill="#232323" d="M 34.210938 9.484375 C 34.210938 9.484375 33.757812 9.679688 33.460938 9.484375 C 33.460938 9.484375 33.632812 9.886719 33.890625 9.90625 C 34.148438 9.929688 34.210938 9.484375 34.210938 9.484375 Z M 34.210938 9.484375 " fill-opacity="1" fill-rule="nonzero"/><path fill="#232323" d="M 37.574219 9.484375 C 37.574219 9.484375 38.027344 9.679688 38.324219 9.484375 C 38.324219 9.484375 38.148438 9.886719 37.894531 9.90625 C 37.636719 9.929688 37.574219 9.484375 37.574219 9.484375 Z M 37.574219 9.484375 " fill-opacity="1" fill-rule="nonzero"/></svg>