<svg xmlns="http://www.w3.org/2000/svg" xmlns:xlink="http://www.w3.org/1999/xlink" width="217" zoomAndPan="magnify" viewBox="0 0 162.75 34.499999" height="46" preserveAspectRatio="xMidYMid meet" version="1.0"><defs><g/><clipPath id="1f67bcc914"><path d="M 5 3.402344 L 28.097656 3.402344 L 28.097656 30.753906 L 5 30.753906 Z M 5 3.402344 " clip-rule="nonzero"/></clipPath></defs><g clip-path="url(#1f67bcc914)"><path fill="#1741da" d="M 26.644531 5.53125 C 25.589844 4.527344 24.175781 3.964844 22.71875 3.972656 C 21.214844 3.976562 19.800781 4.566406 18.734375 5.628906 L 16.703125 7.660156 L 14.722656 5.679688 C 12.519531 3.476562 8.925781 3.40625 6.699219 5.589844 C 4.453125 7.796875 4.4375 11.421875 6.660156 13.640625 L 17.414062 24.394531 C 18.640625 25.621094 18.699219 27.621094 17.496094 28.871094 C 16.261719 30.148438 14.21875 30.164062 12.96875 28.914062 L 10.304688 26.25 C 10.195312 26.140625 10.183594 25.960938 10.277344 25.835938 C 10.671875 25.316406 10.890625 24.660156 10.839844 23.953125 C 10.746094 22.554688 9.601562 21.429688 8.203125 21.355469 C 6.582031 21.269531 5.238281 22.578125 5.257812 24.183594 C 5.277344 25.675781 6.492188 26.902344 7.980469 26.941406 C 8.460938 26.953125 8.914062 26.84375 9.3125 26.640625 C 9.433594 26.578125 9.582031 26.605469 9.679688 26.699219 L 12.429688 29.453125 C 13.195312 30.21875 14.203125 30.601562 15.207031 30.601562 C 16.214844 30.601562 17.222656 30.21875 17.988281 29.453125 C 19.519531 27.921875 19.519531 25.425781 17.988281 23.894531 L 7.199219 13.105469 C 5.289062 11.191406 5.289062 8.082031 7.199219 6.167969 C 9.113281 4.257812 12.222656 4.257812 14.132812 6.167969 L 16.425781 8.460938 C 16.5 8.535156 16.601562 8.574219 16.703125 8.570312 C 16.804688 8.574219 16.90625 8.535156 16.984375 8.460938 L 19.226562 6.214844 C 20.160156 5.285156 21.414062 4.734375 22.730469 4.734375 C 24.042969 4.730469 25.28125 5.242188 26.207031 6.167969 C 27.136719 7.097656 27.644531 8.332031 27.644531 9.644531 C 27.644531 10.960938 27.09375 12.21875 26.164062 13.152344 L 25.4375 13.875 C 25.378906 13.933594 25.296875 13.96875 25.210938 13.96875 L 23.050781 13.96875 C 22.929688 13.96875 22.820312 13.902344 22.765625 13.792969 L 21.722656 11.703125 C 21.605469 11.472656 21.269531 11.472656 21.152344 11.703125 L 19.359375 15.292969 C 19.242188 15.527344 18.910156 15.527344 18.792969 15.292969 L 18.179688 14.066406 C 18.0625 13.832031 17.726562 13.832031 17.609375 14.066406 L 17 15.292969 C 16.882812 15.527344 16.546875 15.527344 16.429688 15.292969 L 14.636719 11.703125 C 14.519531 11.46875 14.1875 11.46875 14.070312 11.703125 L 13.023438 13.792969 C 12.972656 13.898438 12.863281 13.96875 12.742188 13.96875 L 10.828125 13.96875 C 10.617188 13.96875 10.4375 14.128906 10.429688 14.335938 C 10.425781 14.554688 10.597656 14.730469 10.8125 14.730469 L 13.210938 14.730469 C 13.332031 14.730469 13.441406 14.660156 13.496094 14.554688 L 14.070312 13.40625 C 14.1875 13.171875 14.519531 13.171875 14.636719 13.40625 L 16.429688 16.996094 C 16.546875 17.226562 16.882812 17.226562 17 16.996094 L 17.609375 15.769531 C 17.726562 15.535156 18.0625 15.535156 18.179688 15.769531 L 18.792969 16.996094 C 18.910156 17.230469 19.242188 17.230469 19.359375 16.996094 L 21.152344 13.40625 C 21.269531 13.171875 21.601562 13.171875 21.71875 13.40625 L 22.292969 14.554688 C 22.347656 14.660156 22.457031 14.730469 22.578125 14.730469 L 25.5 14.730469 C 25.523438 14.730469 25.546875 14.726562 25.570312 14.722656 C 25.570312 14.722656 25.574219 14.722656 25.574219 14.722656 C 25.597656 14.71875 25.617188 14.710938 25.640625 14.703125 C 25.640625 14.703125 25.644531 14.703125 25.644531 14.703125 C 25.667969 14.691406 25.6875 14.683594 25.707031 14.671875 C 25.707031 14.667969 25.710938 14.667969 25.710938 14.667969 C 25.730469 14.652344 25.75 14.636719 25.769531 14.621094 L 26.691406 13.699219 C 27.78125 12.609375 28.417969 11.132812 28.40625 9.589844 C 28.394531 8.046875 27.769531 6.601562 26.644531 5.53125 Z M 6.019531 24.144531 C 6.019531 23.023438 6.933594 22.113281 8.050781 22.113281 C 9.171875 22.113281 10.085938 23.027344 10.085938 24.144531 C 10.085938 25.269531 9.171875 26.179688 8.050781 26.179688 C 6.933594 26.179688 6.019531 25.269531 6.019531 24.144531 Z M 6.019531 24.144531 " fill-opacity="1" fill-rule="nonzero"/></g><g fill="#1e0a0b" fill-opacity="1"><g transform="translate(40.240282, 14.798497)"><g><path d="M 11.8125 0 L 11.796875 -8 L 7.84375 -1.328125 L 7.109375 -1.328125 L 3.15625 -7.953125 L 3.15625 0 L 1.640625 0 L 1.640625 -10.96875 L 2.9375 -10.96875 L 7.5 -3.265625 L 12.015625 -10.96875 L 13.3125 -10.96875 L 13.328125 0 Z M 11.8125 0 "/></g></g></g><g fill="#1e0a0b" fill-opacity="1"><g transform="translate(55.211499, 14.798497)"><g><path d="M 9.609375 -1.359375 L 9.609375 0 L 1.640625 0 L 1.640625 -10.96875 L 9.390625 -10.96875 L 9.390625 -9.609375 L 3.21875 -9.609375 L 3.21875 -6.234375 L 8.71875 -6.234375 L 8.71875 -4.90625 L 3.21875 -4.90625 L 3.21875 -1.359375 Z M 9.609375 -1.359375 "/></g></g></g><g fill="#1e0a0b" fill-opacity="1"><g transform="translate(65.714865, 14.798497)"><g><path d="M 1.640625 -10.96875 L 6.265625 -10.96875 C 7.429688 -10.96875 8.460938 -10.738281 9.359375 -10.28125 C 10.253906 -9.820312 10.945312 -9.175781 11.4375 -8.34375 C 11.9375 -7.507812 12.1875 -6.554688 12.1875 -5.484375 C 12.1875 -4.410156 11.9375 -3.457031 11.4375 -2.625 C 10.945312 -1.789062 10.253906 -1.144531 9.359375 -0.6875 C 8.460938 -0.226562 7.429688 0 6.265625 0 L 1.640625 0 Z M 6.171875 -1.359375 C 7.054688 -1.359375 7.835938 -1.53125 8.515625 -1.875 C 9.191406 -2.21875 9.710938 -2.703125 10.078125 -3.328125 C 10.441406 -3.953125 10.625 -4.671875 10.625 -5.484375 C 10.625 -6.296875 10.441406 -7.015625 10.078125 -7.640625 C 9.710938 -8.265625 9.191406 -8.75 8.515625 -9.09375 C 7.835938 -9.4375 7.054688 -9.609375 6.171875 -9.609375 L 3.21875 -9.609375 L 3.21875 -1.359375 Z M 6.171875 -1.359375 "/></g></g></g><g fill="#1e0a0b" fill-opacity="1"><g transform="translate(78.663794, 14.798497)"><g><path d="M 1.640625 -10.96875 L 3.21875 -10.96875 L 3.21875 0 L 1.640625 0 Z M 1.640625 -10.96875 "/></g></g></g><g fill="#1e0a0b" fill-opacity="1"><g transform="translate(83.523563, 14.798497)"><g><path d="M 6.546875 0.125 C 5.453125 0.125 4.460938 -0.113281 3.578125 -0.59375 C 2.691406 -1.082031 2 -1.753906 1.5 -2.609375 C 1 -3.460938 0.75 -4.421875 0.75 -5.484375 C 0.75 -6.546875 1 -7.503906 1.5 -8.359375 C 2 -9.210938 2.691406 -9.878906 3.578125 -10.359375 C 4.472656 -10.847656 5.46875 -11.09375 6.5625 -11.09375 C 7.425781 -11.09375 8.210938 -10.945312 8.921875 -10.65625 C 9.628906 -10.375 10.234375 -9.953125 10.734375 -9.390625 L 9.71875 -8.40625 C 8.894531 -9.269531 7.863281 -9.703125 6.625 -9.703125 C 5.8125 -9.703125 5.078125 -9.519531 4.421875 -9.15625 C 3.765625 -8.789062 3.25 -8.285156 2.875 -7.640625 C 2.5 -6.992188 2.3125 -6.273438 2.3125 -5.484375 C 2.3125 -4.691406 2.5 -3.972656 2.875 -3.328125 C 3.25 -2.679688 3.765625 -2.175781 4.421875 -1.8125 C 5.078125 -1.445312 5.8125 -1.265625 6.625 -1.265625 C 7.851562 -1.265625 8.882812 -1.703125 9.71875 -2.578125 L 10.734375 -1.59375 C 10.234375 -1.03125 9.625 -0.601562 8.90625 -0.3125 C 8.195312 -0.0195312 7.410156 0.125 6.546875 0.125 Z M 6.546875 0.125 "/></g></g></g><g fill="#1e0a0b" fill-opacity="1"><g transform="translate(94.857796, 14.798497)"><g><path d="M 8.640625 -2.75 L 2.8125 -2.75 L 1.59375 0 L -0.015625 0 L 4.953125 -10.96875 L 6.5 -10.96875 L 11.484375 0 L 9.84375 0 Z M 8.09375 -4 L 5.71875 -9.375 L 3.359375 -4 Z M 8.09375 -4 "/></g></g></g><g fill="#1e0a0b" fill-opacity="1"><g transform="translate(106.333115, 14.798497)"><g><path d="M 1.640625 -10.96875 L 3.21875 -10.96875 L 3.21875 -1.359375 L 9.15625 -1.359375 L 9.15625 0 L 1.640625 0 Z M 1.640625 -10.96875 "/></g></g></g><g fill="#1e0a0b" fill-opacity="1"><g transform="translate(40.240282, 30.234011)"><g><path d="M 6.546875 0.125 C 5.453125 0.125 4.460938 -0.113281 3.578125 -0.59375 C 2.691406 -1.082031 2 -1.753906 1.5 -2.609375 C 1 -3.460938 0.75 -4.421875 0.75 -5.484375 C 0.75 -6.546875 1 -7.503906 1.5 -8.359375 C 2 -9.210938 2.691406 -9.878906 3.578125 -10.359375 C 4.472656 -10.847656 5.46875 -11.09375 6.5625 -11.09375 C 7.425781 -11.09375 8.210938 -10.945312 8.921875 -10.65625 C 9.628906 -10.375 10.234375 -9.953125 10.734375 -9.390625 L 9.71875 -8.40625 C 8.894531 -9.269531 7.863281 -9.703125 6.625 -9.703125 C 5.8125 -9.703125 5.078125 -9.519531 4.421875 -9.15625 C 3.765625 -8.789062 3.25 -8.285156 2.875 -7.640625 C 2.5 -6.992188 2.3125 -6.273438 2.3125 -5.484375 C 2.3125 -4.691406 2.5 -3.972656 2.875 -3.328125 C 3.25 -2.679688 3.765625 -2.175781 4.421875 -1.8125 C 5.078125 -1.445312 5.8125 -1.265625 6.625 -1.265625 C 7.851562 -1.265625 8.882812 -1.703125 9.71875 -2.578125 L 10.734375 -1.59375 C 10.234375 -1.03125 9.625 -0.601562 8.90625 -0.3125 C 8.195312 -0.0195312 7.410156 0.125 6.546875 0.125 Z M 6.546875 0.125 "/></g></g></g><g fill="#1e0a0b" fill-opacity="1"><g transform="translate(51.574515, 30.234011)"><g><path d="M 1.640625 -10.96875 L 3.21875 -10.96875 L 3.21875 -1.359375 L 9.15625 -1.359375 L 9.15625 0 L 1.640625 0 Z M 1.640625 -10.96875 "/></g></g></g><g fill="#1e0a0b" fill-opacity="1"><g transform="translate(60.886455, 30.234011)"><g><path d="M 1.640625 -10.96875 L 3.21875 -10.96875 L 3.21875 0 L 1.640625 0 Z M 1.640625 -10.96875 "/></g></g></g><g fill="#1e0a0b" fill-opacity="1"><g transform="translate(65.746224, 30.234011)"><g><path d="M 11.078125 -10.96875 L 11.078125 0 L 9.796875 0 L 3.21875 -8.1875 L 3.21875 0 L 1.640625 0 L 1.640625 -10.96875 L 2.9375 -10.96875 L 9.515625 -2.796875 L 9.515625 -10.96875 Z M 11.078125 -10.96875 "/></g></g></g><g fill="#1e0a0b" fill-opacity="1"><g transform="translate(78.475681, 30.234011)"><g><path d="M 1.640625 -10.96875 L 3.21875 -10.96875 L 3.21875 0 L 1.640625 0 Z M 1.640625 -10.96875 "/></g></g></g><g fill="#1e0a0b" fill-opacity="1"><g transform="translate(83.33545, 30.234011)"><g><path d="M 6.546875 0.125 C 5.453125 0.125 4.460938 -0.113281 3.578125 -0.59375 C 2.691406 -1.082031 2 -1.753906 1.5 -2.609375 C 1 -3.460938 0.75 -4.421875 0.75 -5.484375 C 0.75 -6.546875 1 -7.503906 1.5 -8.359375 C 2 -9.210938 2.691406 -9.878906 3.578125 -10.359375 C 4.472656 -10.847656 5.46875 -11.09375 6.5625 -11.09375 C 7.425781 -11.09375 8.210938 -10.945312 8.921875 -10.65625 C 9.628906 -10.375 10.234375 -9.953125 10.734375 -9.390625 L 9.71875 -8.40625 C 8.894531 -9.269531 7.863281 -9.703125 6.625 -9.703125 C 5.8125 -9.703125 5.078125 -9.519531 4.421875 -9.15625 C 3.765625 -8.789062 3.25 -8.285156 2.875 -7.640625 C 2.5 -6.992188 2.3125 -6.273438 2.3125 -5.484375 C 2.3125 -4.691406 2.5 -3.972656 2.875 -3.328125 C 3.25 -2.679688 3.765625 -2.175781 4.421875 -1.8125 C 5.078125 -1.445312 5.8125 -1.265625 6.625 -1.265625 C 7.851562 -1.265625 8.882812 -1.703125 9.71875 -2.578125 L 10.734375 -1.59375 C 10.234375 -1.03125 9.625 -0.601562 8.90625 -0.3125 C 8.195312 -0.0195312 7.410156 0.125 6.546875 0.125 Z M 6.546875 0.125 "/></g></g></g><g fill="#1e0a0b" fill-opacity="1"><g transform="translate(94.669683, 30.234011)"><g><path d="M 4.84375 0.125 C 4.019531 0.125 3.222656 0 2.453125 -0.25 C 1.679688 -0.507812 1.078125 -0.84375 0.640625 -1.25 L 1.21875 -2.46875 C 1.632812 -2.09375 2.171875 -1.785156 2.828125 -1.546875 C 3.484375 -1.316406 4.15625 -1.203125 4.84375 -1.203125 C 5.75 -1.203125 6.425781 -1.351562 6.875 -1.65625 C 7.320312 -1.96875 7.546875 -2.382812 7.546875 -2.90625 C 7.546875 -3.28125 7.421875 -3.582031 7.171875 -3.8125 C 6.929688 -4.050781 6.628906 -4.234375 6.265625 -4.359375 C 5.910156 -4.484375 5.40625 -4.625 4.75 -4.78125 C 3.925781 -4.976562 3.257812 -5.175781 2.75 -5.375 C 2.238281 -5.570312 1.800781 -5.875 1.4375 -6.28125 C 1.082031 -6.695312 0.90625 -7.257812 0.90625 -7.96875 C 0.90625 -8.550781 1.054688 -9.078125 1.359375 -9.546875 C 1.671875 -10.015625 2.140625 -10.390625 2.765625 -10.671875 C 3.398438 -10.953125 4.179688 -11.09375 5.109375 -11.09375 C 5.753906 -11.09375 6.390625 -11.007812 7.015625 -10.84375 C 7.648438 -10.675781 8.191406 -10.4375 8.640625 -10.125 L 8.125 -8.875 C 7.65625 -9.164062 7.160156 -9.382812 6.640625 -9.53125 C 6.117188 -9.6875 5.609375 -9.765625 5.109375 -9.765625 C 4.222656 -9.765625 3.554688 -9.601562 3.109375 -9.28125 C 2.660156 -8.957031 2.4375 -8.539062 2.4375 -8.03125 C 2.4375 -7.644531 2.5625 -7.332031 2.8125 -7.09375 C 3.070312 -6.863281 3.382812 -6.679688 3.75 -6.546875 C 4.125 -6.421875 4.628906 -6.285156 5.265625 -6.140625 C 6.085938 -5.941406 6.75 -5.742188 7.25 -5.546875 C 7.757812 -5.347656 8.191406 -5.046875 8.546875 -4.640625 C 8.910156 -4.234375 9.09375 -3.6875 9.09375 -3 C 9.09375 -2.414062 8.9375 -1.882812 8.625 -1.40625 C 8.3125 -0.9375 7.832031 -0.5625 7.1875 -0.28125 C 6.550781 -0.0078125 5.769531 0.125 4.84375 0.125 Z M 4.84375 0.125 "/></g></g></g></svg>